<svg xmlns="http://www.w3.org/2000/svg" fill="none" viewBox="0 0 24 24" height="24" width="24">
<path fill="white" d="M0 2.59233C0 1.16063 1.16063 0 2.59233 0H21.4077C22.8394 0 24 1.16063 24 2.59233V21.4077C24 22.8394 22.8394 24 21.4077 24H2.59233C1.16063 24 0 22.8394 0 21.4077V2.59233ZM19.3851 6.96684L12.864 3.30169C12.3694 3.02487 11.7553 3.02487 11.2606 3.30169L4.73958 6.96684C4.24041 7.24668 3.93031 7.77157 3.93031 8.33428V15.6646C3.93031 16.2273 4.24041 16.7522 4.73958 17.032L11.2606 20.6972C11.5087 20.8363 11.7855 20.9059 12.0623 20.9059C12.3391 20.9059 12.616 20.8363 12.864 20.6972L19.3851 17.032C19.8842 16.7522 20.1943 16.2273 20.1943 15.6646V8.33428C20.1943 7.77157 19.8842 7.24668 19.3851 6.96684ZM12.1692 7.00005C14.0814 7.00005 15.7509 8.03855 16.6452 9.58221L16.6364 9.56735L14.3865 10.8628C13.9433 10.1123 13.1307 9.60577 12.1985 9.59532L12.1691 9.59516C10.7476 9.59516 9.59516 10.7476 9.59516 12.1691C9.59469 12.6171 9.71174 13.0575 9.93463 13.4461C10.3783 14.2207 11.2124 14.7431 12.1692 14.7431C13.1241 14.7431 13.9572 14.2225 14.4014 13.45L16.6478 14.7514C15.7634 16.282 14.1167 17.3173 12.2267 17.3379L12.1692 17.3382C10.2509 17.3382 8.57663 16.2933 7.68461 14.7415C7.24915 13.9839 7 13.1057 7 12.1691C7 9.31434 9.31423 7 12.1691 7L12.1692 7.00005ZM14.4014 13.45L14.4013 13.45L14.412 13.4312L14.4014 13.45ZM16.1649 10.682V11.4152H16.898V10.682H17.2646V11.4152H17.9977V11.7817H17.2646V12.5148H17.9977V12.8814H17.2646V13.6145H16.898V12.8814H16.1649V13.6145H15.7983V12.8814H15.0652V12.5148H15.7983V11.7817H15.0652V11.4152H15.7983V10.682H16.1649ZM16.898 11.7817H16.1649V12.5148H16.898V11.7817Z" clip-rule="evenodd" fill-rule="evenodd"/>
</svg>