<?xml version="1.0" encoding="UTF-8"?>
<svg version="1.1" viewBox="0 0 1600 1600" width="1280" height="1280" xmlns="http://www.w3.org/2000/svg">
<path transform="translate(0)" d="m0 0h924v11c-2.97 0.99-2.97 0.99-6 2l-1 5c-0.62 0.06-1.24 0.12-1.88 0.19-0.7 0.27-1.4 0.53-2.12 0.81-0.31 0.8-0.62 1.61-0.94 2.44-1.06 2.56-1.06 2.56-3.62 3.62-0.81 0.31-1.61 0.62-2.44 0.94-0.16 0.66-0.33 1.32-0.5 2-0.16 0.66-0.33 1.32-0.5 2-1.67 0.67-3.33 1.33-5 2-0.16 0.66-0.33 1.32-0.5 2-0.16 0.66-0.33 1.32-0.5 2-0.8 0.31-1.61 0.62-2.44 0.94-0.84 0.35-1.69 0.7-2.56 1.06-0.33 0.85-0.66 1.69-1 2.56-0.33 0.81-0.66 1.61-1 2.44-2.62 0.81-2.62 0.81-5 1-0.09 1.18-0.09 1.18-0.19 2.38-0.27 0.86-0.53 1.73-0.81 2.62-1.65 0.7-3.32 1.37-5 2-0.16 0.66-0.33 1.32-0.5 2-0.16 0.66-0.33 1.32-0.5 2-0.83 0.31-1.65 0.62-2.5 0.94-0.83 0.35-1.65 0.7-2.5 1.06-0.89 2.55-0.89 2.55-1 5h-4c-0.21 0.95-0.41 1.9-0.62 2.88-0.69 1.54-0.69 1.54-1.38 3.12-1.98 0.73-3.98 1.4-6 2-0.37 1.32-0.71 2.66-1 4-1.67 0.67-3.33 1.33-5 2-0.16 0.66-0.33 1.32-0.5 2-0.16 0.66-0.33 1.32-0.5 2-0.83 0.31-1.65 0.62-2.5 0.94-0.83 0.35-1.65 0.7-2.5 1.06-0.89 2.55-0.89 2.55-1 5h-4c-0.59 1.42-0.59 1.42-1.19 2.88-2.08 3.58-3.09 3.75-6.81 5.12-0.16 0.66-0.33 1.32-0.5 2-0.16 0.66-0.33 1.32-0.5 2-1.67 0.67-3.33 1.33-5 2-0.16 0.66-0.33 1.32-0.5 2-0.16 0.66-0.33 1.32-0.5 2-0.83 0.31-1.65 0.62-2.5 0.94-0.83 0.35-1.65 0.7-2.5 1.06-0.89 2.55-0.89 2.55-1 5-0.99-0.33-1.98-0.66-3-1-0.37 1.11-0.74 2.23-1.12 3.38-0.82 1.94-0.82 1.94-1.88 3.62-3.12 1.19-3.12 1.19-6 2-0.37 1.32-0.71 2.66-1 4-1.67 0.67-3.33 1.33-5 2-0.16 0.66-0.33 1.32-0.5 2-0.16 0.66-0.33 1.32-0.5 2-1.67 0.67-3.33 1.33-5 2-0.16 0.66-0.33 1.32-0.5 2-0.16 0.66-0.33 1.32-0.5 2-0.83 0.31-1.65 0.62-2.5 0.94-0.83 0.35-1.65 0.7-2.5 1.06-0.89 2.55-0.89 2.55-1 5-1.45 0.37-1.45 0.37-2.94 0.75-1.51 0.62-1.51 0.62-3.06 1.25-0.37 1.32-0.71 2.66-1 4-1.67 0.67-3.33 1.33-5 2-0.16 0.66-0.33 1.32-0.5 2-0.16 0.66-0.33 1.32-0.5 2-2.56 1.25-2.56 1.25-5 2v4c-1.13 0.41-2.27 0.82-3.44 1.25-1.17 0.58-2.35 1.16-3.56 1.75-0.65 2.02-0.65 2.02-1 4-1.67 0.67-3.33 1.33-5 2-0.16 0.66-0.33 1.32-0.5 2-0.16 0.66-0.33 1.32-0.5 2-1.67 0.67-3.33 1.33-5 2-0.16 0.66-0.33 1.32-0.5 2-0.16 0.66-0.33 1.32-0.5 2-0.83 0.31-1.65 0.62-2.5 0.94-0.83 0.35-1.65 0.7-2.5 1.06-0.89 2.55-0.89 2.55-1 5-2.97 0.99-2.97 0.99-6 2l1 4-7 2c-0.06 0.62-0.12 1.24-0.19 1.88-0.27 0.7-0.53 1.4-0.81 2.12-1.67 0.67-3.33 1.33-5 2-0.16 0.66-0.33 1.32-0.5 2-0.16 0.66-0.33 1.32-0.5 2-0.83 0.31-1.65 0.62-2.5 0.94-0.83 0.35-1.65 0.7-2.5 1.06-0.89 2.55-0.89 2.55-1 5h-5c-0.23 0.95-0.45 1.9-0.69 2.88-1.31 3.12-1.31 3.12-3.87 4.24-0.81 0.29-1.61 0.58-2.44 0.88-0.16 0.66-0.33 1.32-0.5 2-0.16 0.66-0.33 1.32-0.5 2-1.67 0.67-3.33 1.33-5 2-0.16 0.66-0.33 1.32-0.5 2-0.16 0.66-0.33 1.32-0.5 2-0.83 0.31-1.65 0.62-2.5 0.94-0.83 0.35-1.65 0.7-2.5 1.06-0.89 2.55-0.89 2.55-1 5-2.31 0.33-4.62 0.66-7 1v5c-0.8 0.25-1.61 0.5-2.44 0.75-0.84 0.41-1.69 0.82-2.56 1.25-0.16 0.66-0.33 1.32-0.5 2-0.16 0.66-0.33 1.32-0.5 2-1.67 0.67-3.33 1.33-5 2-0.16 0.66-0.33 1.32-0.5 2-0.16 0.66-0.33 1.32-0.5 2-0.83 0.31-1.65 0.62-2.5 0.94-0.83 0.35-1.65 0.7-2.5 1.06-0.89 2.55-0.89 2.55-1 5h-5v6l-7 2c-0.09 0.93-0.09 0.93-0.19 1.88-0.27 0.7-0.53 1.4-0.81 2.12-1.67 0.67-3.33 1.33-5 2-0.16 0.66-0.33 1.32-0.5 2-0.16 0.66-0.33 1.32-0.5 2-0.83 0.31-1.65 0.62-2.5 0.94-0.83 0.35-1.65 0.7-2.5 1.06-0.89 2.55-0.89 2.55-1 5h-4c-0.59 1.42-0.59 1.42-1.19 2.88-2.08 3.58-3.09 3.75-6.81 5.12-0.16 0.66-0.33 1.32-0.5 2-0.16 0.66-0.33 1.32-0.5 2-1.67 0.67-3.33 1.33-5 2-0.16 0.66-0.33 1.32-0.5 2-0.16 0.66-0.33 1.32-0.5 2-0.83 0.31-1.65 0.62-2.5 0.94-0.83 0.35-1.65 0.7-2.5 1.06-0.89 2.55-0.89 2.55-1 5l-5 1-1 5c-1.45 0.37-1.45 0.37-2.94 0.75-1.01 0.41-2.02 0.82-3.06 1.25-0.37 1.32-0.71 2.66-1 4-1.67 0.67-3.33 1.33-5 2-0.16 0.66-0.33 1.32-0.5 2-0.16 0.66-0.33 1.32-0.5 2-0.83 0.31-1.65 0.62-2.5 0.94-0.83 0.35-1.65 0.7-2.5 1.06-0.89 2.55-0.89 2.55-1 5-1.98 0.33-3.96 0.66-6 1v5c-1.98 0.33-3.96 0.66-6 1v5c-1.45 0.37-1.45 0.37-2.94 0.75-1.01 0.41-2.02 0.82-3.06 1.25-0.37 1.32-0.71 2.66-1 4-0.83 0.31-1.65 0.62-2.5 0.94-0.83 0.35-1.65 0.7-2.5 1.06-0.14 0.8-0.29 1.61-0.44 2.44-0.18 0.84-0.37 1.69-0.56 2.56-1.97 1.07-3.97 2.07-6 3l-1 3c-0.83 0.31-1.65 0.62-2.5 0.94-0.83 0.35-1.65 0.7-2.5 1.06-0.16 0.66-0.33 1.32-0.5 2-0.16 0.66-0.33 1.32-0.5 2-1.67 0.67-3.33 1.33-5 2-0.16 0.66-0.33 1.32-0.5 2-0.16 0.66-0.33 1.32-0.5 2-0.83 0.31-1.65 0.62-2.5 0.94-0.83 0.35-1.65 0.7-2.5 1.06-0.89 2.55-0.89 2.55-1 5-1.98 0.66-3.96 1.32-6 2l1 4-7 2c-0.09 0.93-0.09 0.93-0.19 1.88-0.27 0.7-0.53 1.4-0.81 2.12-1.67 0.67-3.33 1.33-5 2-0.16 0.66-0.33 1.32-0.5 2-0.16 0.66-0.33 1.32-0.5 2-0.83 0.31-1.65 0.62-2.5 0.94-0.83 0.35-1.65 0.7-2.5 1.06-0.89 2.55-0.89 2.55-1 5-1.45 0.37-1.45 0.37-2.94 0.75-1.01 0.41-2.02 0.82-3.06 1.25-0.37 1.32-0.71 2.66-1 4-1.67 0.67-3.33 1.33-5 2-0.17 0.66-0.33 1.32-0.5 2-0.17 0.66-0.33 1.32-0.5 2-1.67 0.67-3.33 1.33-5 2-0.17 0.66-0.33 1.32-0.5 2-0.17 0.66-0.33 1.32-0.5 2-1.24 0.46-1.24 0.46-2.5 0.94-0.82 0.35-1.65 0.7-2.5 1.06-0.89 2.55-0.89 2.55-1 5-1.45 0.37-1.45 0.37-2.94 0.75-1.01 0.41-2.02 0.82-3.06 1.25-0.37 1.32-0.71 2.66-1 4-1.67 0.67-3.33 1.33-5 2-0.17 0.66-0.33 1.32-0.5 2-0.17 0.66-0.33 1.32-0.5 2-1.67 0.67-3.33 1.33-5 2-0.17 0.66-0.33 1.32-0.5 2-0.17 0.66-0.33 1.32-0.5 2-1.24 0.46-1.24 0.46-2.5 0.94-0.82 0.35-1.65 0.7-2.5 1.06-0.89 2.55-0.89 2.55-1 5h-5v6l-7 2c-0.09 0.93-0.09 0.93-0.19 1.88-0.27 0.7-0.53 1.4-0.81 2.12-1.67 0.67-3.33 1.33-5 2-0.17 0.66-0.33 1.32-0.5 2-0.17 0.66-0.33 1.32-0.5 2-1.67 0.67-3.33 1.33-5 2-0.89 2.04-0.89 2.04-1 4-0.9 0.06-0.9 0.06-1.81 0.12-2.54 0.73-2.54 0.73-3.63 3.88-1.56 3-1.56 3-4.25 3.88-1.14 0.06-1.14 0.06-2.31 0.12-0.06 0.78-0.12 1.57-0.19 2.38-0.27 0.86-0.53 1.73-0.81 2.62-1.65 0.7-3.32 1.37-5 2-0.17 0.66-0.33 1.32-0.5 2-0.17 0.66-0.33 1.32-0.5 2-1.24 0.46-1.24 0.46-2.5 0.94-0.82 0.35-1.65 0.7-2.5 1.06-0.89 2.55-0.89 2.55-1 5h-4c-0.31 1.42-0.31 1.42-0.62 2.88-0.69 1.54-0.69 1.54-1.38 3.12-1.98 0.73-3.98 1.4-6 2-0.37 1.32-0.71 2.66-1 4-1.67 0.67-3.33 1.33-5 2-0.17 0.66-0.33 1.32-0.5 2-0.17 0.66-0.33 1.32-0.5 2-1.67 0.67-3.33 1.33-5 2-0.17 0.66-0.33 1.32-0.5 2-0.17 0.66-0.33 1.32-0.5 2-0.82 0.31-1.65 0.62-2.5 0.94-0.82 0.35-1.65 0.7-2.5 1.06-0.89 2.55-0.89 2.55-1 5-0.97 0.25-1.94 0.5-2.94 0.75-1.01 0.41-2.02 0.83-3.06 1.25-0.37 1.32-0.71 2.66-1 4-1.67 0.67-3.33 1.33-5 2-0.17 0.66-0.33 1.32-0.5 2-0.17 0.66-0.33 1.32-0.5 2-2.56 1.25-2.56 1.25-5 2v4c-1.13 0.41-2.27 0.83-3.44 1.25-1.17 0.58-2.35 1.15-3.56 1.75-0.65 2.02-0.65 2.02-1 4-1.67 0.67-3.33 1.33-5 2-0.17 0.66-0.33 1.32-0.5 2-0.17 0.66-0.33 1.32-0.5 2-1.67 0.67-3.33 1.33-5 2-0.17 0.66-0.33 1.32-0.5 2-0.17 0.66-0.33 1.32-0.5 2-0.82 0.31-1.65 0.62-2.5 0.94-0.82 0.35-1.65 0.7-2.5 1.06-0.89 2.55-0.89 2.55-1 5-1.98 0.66-3.96 1.32-6 2l1 4-7 2c-0.06 0.62-0.12 1.24-0.19 1.88-0.27 0.7-0.53 1.4-0.81 2.12-1.67 0.67-3.33 1.33-5 2-0.17 0.66-0.33 1.32-0.5 2-0.17 0.66-0.33 1.32-0.5 2-0.82 0.31-1.65 0.62-2.5 0.94-0.82 0.35-1.65 0.7-2.5 1.06-0.89 2.55-0.89 2.55-1 5-0.97 0.25-1.94 0.5-2.94 0.75-1.01 0.41-2.02 0.83-3.06 1.25-0.37 1.32-0.71 2.66-1 4-1.67 0.67-3.33 1.33-5 2-0.17 0.66-0.33 1.32-0.5 2-0.17 0.66-0.33 1.32-0.5 2-1.67 0.67-3.33 1.33-5 2-0.17 0.66-0.33 1.32-0.5 2-0.17 0.66-0.33 1.32-0.5 2-0.82 0.31-1.65 0.62-2.5 0.94-0.82 0.35-1.65 0.7-2.5 1.06-0.89 2.55-0.89 2.55-1 5-0.97 0.25-1.94 0.5-2.94 0.75-1.01 0.41-2.02 0.83-3.06 1.25-0.37 1.32-0.71 2.66-1 4-1.67 0.67-3.33 1.33-5 2-0.17 0.66-0.33 1.32-0.5 2-0.17 0.66-0.33 1.32-0.5 2-1.67 0.67-3.33 1.33-5 2-0.17 0.66-0.33 1.32-0.5 2-0.17 0.66-0.33 1.32-0.5 2-0.82 0.31-1.65 0.62-2.5 0.94-0.82 0.35-1.65 0.7-2.5 1.06-0.89 2.55-0.89 2.55-1 5h-5v6l-7 2c-0.06 0.62-0.12 1.24-0.19 1.88-0.27 0.7-0.53 1.4-0.81 2.12-1.67 0.67-3.33 1.33-5 2-0.16 0.66-0.33 1.32-0.5 2-0.16 0.66-0.33 1.32-0.5 2-1.67 0.67-3.33 1.33-5 2-0.89 2.04-0.89 2.04-1 4-0.6 0.04-1.2 0.08-1.81 0.12-2.54 0.73-2.54 0.73-3.63 3.88-1.56 3-1.56 3-4.25 3.88-1.14 0.06-1.14 0.06-2.31 0.12-0.06 0.78-0.12 1.57-0.19 2.38-0.27 0.86-0.53 1.73-0.81 2.62-1.65 0.7-3.32 1.37-5 2-0.16 0.66-0.33 1.32-0.5 2-0.16 0.66-0.33 1.32-0.5 2-0.82 0.31-1.65 0.62-2.5 0.94-0.82 0.35-1.65 0.7-2.5 1.06-0.89 2.55-0.89 2.55-1 5h-4c-0.21 0.95-0.41 1.9-0.62 2.88-0.46 1.03-0.91 2.06-1.38 3.12-1.98 0.73-3.98 1.4-6 2-0.37 1.32-0.71 2.66-1 4-1.67 0.67-3.33 1.33-5 2-0.16 0.66-0.33 1.32-0.5 2-0.16 0.66-0.33 1.32-0.5 2-2.56 1.25-2.56 1.25-5 2v4c-1.98 0.66-3.96 1.32-6 2l-1 5c-0.97 0.25-1.94 0.5-2.94 0.75-1.01 0.41-2.02 0.83-3.06 1.25-0.37 1.32-0.71 2.66-1 4-1.67 0.67-3.33 1.33-5 2-0.16 0.66-0.33 1.32-0.5 2-0.16 0.66-0.33 1.32-0.5 2-1.67 0.67-3.33 1.33-5 2-0.89 2.04-0.89 2.04-1 4l-5 1c-0.34 1.42-0.34 1.42-0.69 2.88-1.31 3.12-1.31 3.12-3.87 4.24-0.81 0.29-1.61 0.58-2.44 0.88-0.16 0.66-0.33 1.32-0.5 2-0.16 0.66-0.33 1.32-0.5 2-1.67 0.67-3.33 1.33-5 2-0.16 0.66-0.33 1.32-0.5 2-0.16 0.66-0.33 1.32-0.5 2-1.67 0.67-3.33 1.33-5 2-0.16 0.66-0.33 1.32-0.5 2-0.16 0.66-0.33 1.32-0.5 2-2.56 1.25-2.56 1.25-5 2-0.83 5.04-1.11 9.81-1.06 14.9 0 1.02 0 1.02 0.01 2.07 0.01 1.66 0.03 3.33 0.05 4.99h2v2c0.99-0.33 1.98-0.66 3-1 0.25 0.78 0.5 1.57 0.75 2.38 0.98 2.74 0.98 2.74 3.25 3.62 2 1 2 1 2.88 3.5 0.93 2.84 0.93 2.84 4.24 3.81 0.95 0.23 1.9 0.46 2.88 0.69v5c1.98 0.33 3.96 0.66 6 1l1 5 5 1c0.06 0.78 0.12 1.57 0.19 2.38 0.27 0.86 0.53 1.73 0.81 2.62 1.65 0.7 3.32 1.37 5 2 0.33 1.33 0.67 2.67 1 4 1.66 0.68 3.33 1.35 5 2 0.68 1.32 1.35 2.66 2 4 0.82 0.5 1.65 0.99 2.5 1.5 2.79 1.67 3.1 2.71 4.5 5.5 2.05 0.81 2.05 0.81 4 1 0.06 0.78 0.12 1.57 0.19 2.38 0.27 0.86 0.53 1.73 0.81 2.62 1.65 0.7 3.32 1.37 5 2 0.14 0.66 0.29 1.32 0.44 2 0.28 0.99 0.28 0.99 0.56 2 0.99 0.33 1.98 0.66 3 1 0.99 0.33 1.98 0.66 3 1 0.37 1.32 0.71 2.66 1 4 2.49 1.3 2.49 1.3 5 2v5h5c0.23 0.95 0.45 1.9 0.69 2.88 0.97 3.32 0.97 3.32 3.87 4.24 0.81 0.29 1.61 0.58 2.44 0.88 0.81 2.12 0.81 2.12 1 4l5 1v2h2v3l5 2v4c1.98 0.66 3.96 1.32 6 2 0.06 0.78 0.12 1.57 0.19 2.38 0.27 0.86 0.53 1.73 0.81 2.62 1.65 0.7 3.32 1.37 5 2 0.81 2.12 0.81 2.12 1 4l5 1v2h2v3c0.78 0.23 1.57 0.45 2.38 0.69 3.3 1.65 3.34 2.98 4.62 6.31 2.04 0.89 2.04 0.89 4 1 0.06 0.78 0.12 1.57 0.19 2.38 0.27 0.86 0.53 1.73 0.81 2.62 1.65 0.7 3.32 1.37 5 2 0.81 2.12 0.81 2.12 1 4l7 2v4l5 2v4h2v2c0.99-0.33 1.98-0.66 3-1 0.23 0.95 0.45 1.9 0.69 2.88 0.97 3.32 0.97 3.32 3.87 4.24 0.81 0.29 1.61 0.58 2.44 0.88 0.81 2.12 0.81 2.12 1 4l5 1v2h2l1 4 4 1 1 5 5 1c0.06 0.78 0.12 1.57 0.19 2.38 0.27 0.86 0.53 1.73 0.81 2.62 1.65 0.7 3.32 1.37 5 2 0.81 2.12 0.81 2.12 1 4l5 1v2h2v3l5 2v4h2v2l4 1 1 5 5 1c0.03 0.9 0.03 0.9 0.06 1.81 0.84 2.62 0.84 2.62 4.5 3.94 1.14 0.41 2.27 0.83 3.44 1.25v4l5 1v4h2v2c0.99-0.33 1.98-0.66 3-1l2 6 10 1c0.31 1.18 0.31 1.18 0.62 2.38 1.19 2.93 1.19 2.93 4.5 3.93 0.95 0.23 1.9 0.46 2.88 0.69v5c1.05-0.02 2.1-0.04 3.19-0.06 3.14 0.05 5.76 0.43 8.81 1.06l1-1c1.67-0.04 3.33-0.04 5 0 0.14-0.8 0.29-1.61 0.44-2.44 0.56-2.56 0.56-2.56 1.56-3.56 1.67-0.04 3.33-0.04 5 0l1-6h5l1-5 5-1c0.08-0.78 0.17-1.57 0.25-2.38 0.75-2.62 0.75-2.62 2.69-3.93 2.06-0.69 2.06-0.69 4.06-0.69l1-5 5-1 1-5 5-1 1-5 5-1c0.08-0.78 0.17-1.57 0.25-2.38 0.75-2.62 0.75-2.62 2.63-4 2.12-0.62 2.12-0.62 5.12 0.38-0.19-0.97-0.37-1.94-0.56-2.94-0.15-1.01-0.29-2.02-0.44-3.06 1-1 1-1 3.56-1.06 0.81 0.02 1.61 0.04 2.44 0.06l1-5 5-1 1-5 5-1 1-6 5-1c0.12-0.62 0.25-1.24 0.38-1.88 0.62-2.12 0.62-2.12 2.62-4.12h4c0.25-0.97 0.5-1.94 0.75-2.94 0.41-1.01 0.82-2.02 1.25-3.06 2.13-0.88 2.13-0.88 4-1l1-4 5-1c0.12-0.95 0.25-1.9 0.38-2.88 0.62-3.12 0.62-3.12 2.62-5.12h3c0.04-0.62 0.08-1.24 0.12-1.88 0.29-0.7 0.58-1.4 0.88-2.12 3.06-1.25 3.06-1.25 6-2l1-5h5l1-5 5-1c0.14-0.76 0.29-1.53 0.44-2.31 0.56-2.69 0.56-2.69 1.56-5.69 2.06-0.69 2.06-0.69 4-1l1-4c1.98-0.33 3.96-0.66 6-1l1-5h5l1-6c0.78-0.06 1.57-0.12 2.38-0.19 0.86-0.27 1.73-0.53 2.62-0.81 0.72-1.65 1.38-3.31 2-5 1.33-0.68 2.66-1.35 4-2 0.14-0.66 0.29-1.32 0.44-2 0.18-0.66 0.37-1.32 0.56-2 2.56-1.25 2.56-1.25 5-2v-3c2.65-1.46 3.89-2 7-2l1-5 5-1c0.14-0.76 0.29-1.53 0.44-2.31 0.56-2.69 0.56-2.69 1.56-5.69h4c0.14-0.64 0.29-1.28 0.44-1.94 0.56-2.06 0.56-2.06 1.56-3.06 2-0.04 4-0.04 6 0-0.19-0.62-0.37-1.24-0.56-1.88-0.44-2.12-0.44-2.12 0.56-4.12h5l1-5 5-1c0.25-1.11 0.5-2.23 0.75-3.38 1.25-3.62 1.25-3.62 3.31-4.87 0.64-0.25 1.28-0.5 1.94-0.75l1-3 5-1c0.14-0.8 0.29-1.61 0.44-2.44 0.56-2.56 0.56-2.56 1.56-3.56 1.67-0.04 3.33-0.04 5 0l1-5 5-1c0.12-0.95 0.25-1.9 0.38-2.88 0.62-3.12 0.62-3.12 2.62-5.12h3c0.14-0.64 0.29-1.28 0.44-1.94 0.56-2.06 0.56-2.06 1.56-3.06 1.67-0.04 3.33-0.04 5 0l1-5 5-1 1-5 5-1c0.12-1.14 0.12-1.14 0.25-2.31 0.92-3.31 2.01-3.76 4.75-5.69 0.47-0.89 0.95-1.77 1.44-2.69 0.51-0.76 1.03-1.52 1.56-2.31 2.69-0.31 2.69-0.31 5 0l1-5 5-1 1-6h5c0.15-1.14 0.15-1.14 0.31-2.31 0.74-2.89 1.31-3.95 3.69-5.69h3c0.06-0.62 0.12-1.24 0.19-1.88 0.27-0.7 0.53-1.4 0.81-2.12 0.8-0.31 1.61-0.62 2.44-0.94 2.81-0.81 2.81-0.81 3.62-3.62 0.31-0.81 0.62-1.61 0.94-2.44 2.13-0.81 2.13-0.81 4-1l1-4 5-1c0.12-0.95 0.25-1.9 0.38-2.88 0.62-3.12 0.62-3.12 2.62-5.12h3c0.04-0.62 0.08-1.24 0.12-1.88 0.29-0.7 0.58-1.4 0.88-2.12 0.97-0.31 1.94-0.62 2.94-0.94 3.28-0.74 3.28-0.74 4.44-3.68 0.2-0.79 0.41-1.57 0.62-2.38h4l1-5 5-1c0.14-0.76 0.29-1.53 0.44-2.31 0.56-2.69 0.56-2.69 1.56-5.69 2.06-0.69 2.06-0.69 4-1l1-4c1.98-0.33 3.96-0.66 6-1l1-5h5l1-6c0.78-0.06 1.57-0.12 2.38-0.19 0.86-0.27 1.73-0.53 2.62-0.81 0.72-1.65 1.38-3.31 2-5 1.33-0.68 2.66-1.35 4-2 0.19-0.99 0.19-0.99 0.38-2 0.2-0.66 0.41-1.32 0.62-2 2-0.67 4-1.33 6-2 0.97-2.03 0.97-2.03 1-4l5-1 1-5 5-1c0.14-0.76 0.29-1.53 0.44-2.31 0.56-2.69 0.56-2.69 1.56-5.69h4c0.14-0.64 0.29-1.28 0.44-1.94 0.56-2.06 0.56-2.06 1.56-3.06 1.67-0.04 3.33-0.04 5 0l1-5 5-1 1-7 5 1c0.12-0.78 0.25-1.57 0.38-2.38 0.62-2.62 0.62-2.62 2.62-4.62h3c0.14-0.8 0.29-1.61 0.44-2.44 0.56-2.56 0.56-2.56 1.56-3.56 1.67-0.04 3.33-0.04 5 0v-5c1.98-0.33 3.96-0.66 6-1l1-5 5-1c0.08-0.78 0.16-1.57 0.25-2.38 0.75-2.62 0.75-2.62 2.69-3.93 2.06-0.69 2.06-0.69 4.06-0.69l1-5 5-1 1-5 5-1 1-5 5-1c0.08-0.78 0.16-1.57 0.25-2.38 0.75-2.62 0.75-2.62 2.63-4 2.12-0.62 2.12-0.62 5.12 0.38l-1-6c0.93-0.12 0.93-0.12 1.88-0.25 2.28-0.55 2.28-0.55 3.24-2.69 0.29-0.68 0.58-1.36 0.88-2.06l2-2h4l1-5 5-1 1-6c0.97-0.25 1.94-0.5 2.94-0.75 1.01-0.41 2.02-0.83 3.06-1.25 0.97-2.03 0.97-2.03 1-4l5-1 2-6h4l1-5 5-1 1-6 5-1 1-3c1.37-1.69 1.37-1.69 3-3h3l1-5 5-1 1-5 5-1 1-6c3.75-1.12 3.75-1.12 6 0-0.04-0.78-0.08-1.57-0.12-2.38 0.12-2.62 0.12-2.62 2.12-4.62h4l1-5 5-1 1-6h5c0.12-0.76 0.25-1.53 0.38-2.31 0.62-2.69 0.62-2.69 2.62-5.69l4 2 1-7h5l1-5 5-1 1-5 5-1c0.12-0.76 0.25-1.53 0.38-2.31 0.62-2.69 0.62-2.69 2.62-5.69l5 2c-0.19-0.6-0.37-1.2-0.56-1.81-0.44-2.19-0.44-2.19 0.56-5.19h5l1-6h5l1-5 5-1v-5c2.65-1.46 3.89-2 7-2l1-5 5-1 1-6h5l1-5 5-1c0.08-0.78 0.16-1.57 0.25-2.38 0.75-2.62 0.75-2.62 2.69-3.93 2.06-0.69 2.06-0.69 4.06-0.69l1-5 5-1 1-5 5-1 1-5 5-1c0.08-0.78 0.16-1.57 0.25-2.38 0.75-2.62 0.75-2.62 2.63-4 2.12-0.62 2.12-0.62 5.12 0.38l-1-6c0.62-0.08 1.24-0.17 1.88-0.25 2.28-0.55 2.28-0.55 3.24-2.69 0.29-0.68 0.58-1.36 0.88-2.06l2-2h4l1-5 5-1 1-6c0.97-0.25 1.94-0.5 2.94-0.75 1.01-0.41 2.02-0.82 3.06-1.25 0.97-2.03 0.97-2.03 1-4l5-1 2-6h4l1-5 5-1 1-6 5-1 1-3c1.38-1.69 1.38-1.69 3-3h3l1-5 5-1 1-5 5-1 1-6c3.75-1.13 3.75-1.13 6 0l1-7h5l1-5 5-1 1-6h5c0.12-0.76 0.25-1.53 0.38-2.31 0.62-2.69 0.62-2.69 2.62-5.69l4 2 1-7h5l1-5 5-1 1-6h5c0.12-0.76 0.25-1.53 0.38-2.31 0.62-2.69 0.62-2.69 2.62-5.69l5 2c-0.19-0.6-0.37-1.2-0.56-1.81-0.44-2.19-0.44-2.19 0.56-5.19h5l1-6h5l1-5 5-1v-5c2.65-1.46 3.89-2 7-2l1-5 5-1 1-6h5l1-5 5-1c0.08-0.78 0.16-1.57 0.25-2.38 0.75-2.62 0.75-2.62 2.69-3.93 2.06-0.69 2.06-0.69 4.06-0.69l1-5 5-1 1-5 5-1 1-5 5-1c0.08-0.78 0.16-1.57 0.25-2.38 0.75-2.62 0.75-2.62 2.63-4 2.12-0.62 2.12-0.62 5.12 0.38l-1-6c0.62-0.08 1.24-0.16 1.88-0.25 2.28-0.55 2.28-0.55 3.24-2.69 0.29-0.68 0.58-1.36 0.88-2.06l2-2h4l1-5 5-1c0.12-1.42 0.12-1.42 0.25-2.88 0.75-3.12 0.75-3.12 2.69-4.5 2.06-0.62 2.06-0.62 4.06-0.62l1-4 5-1c0.25-0.97 0.49-1.94 0.75-2.94 0.41-1.01 0.83-2.02 1.25-3.06 2.12-0.88 2.12-0.88 4-1l1-4 5-1c0.19-1.42 0.19-1.42 0.38-2.88 0.62-3.12 0.62-3.12 2.62-5.12h3c0.14-0.64 0.29-1.28 0.44-1.94 0.56-2.06 0.56-2.06 1.56-3.06 1.67-0.04 3.33-0.04 5 0l1-6h5l1-5 5-1c0.12-0.78 0.25-1.57 0.38-2.38 0.62-2.62 0.62-2.62 2.62-4.62 2.12-0.62 2.12-0.62 4-1l1-5h5l1-5 5-1 1-6h5c0.12-0.78 0.25-1.57 0.38-2.38 0.62-2.62 0.62-2.62 2.62-4.62h3c0.14-0.8 0.29-1.61 0.44-2.44 0.56-2.56 0.56-2.56 1.56-3.56 1.67-0.04 3.33-0.04 5 0l1-5 5-1c0.06-0.93 0.12-1.86 0.19-2.81 0.81-3.19 0.81-3.19 3.31-4.81 1.24-0.69 1.24-0.69 2.5-1.38 0.88-2.09 0.88-2.09 1-4h5c0.14-0.8 0.29-1.61 0.44-2.44 0.56-2.56 0.56-2.56 1.56-3.56 1.67-0.04 3.33-0.04 5 0l1-5 5-1c-0.06-1.18-0.06-1.18-0.12-2.38 0.12-2.62 0.12-2.62 2.12-4.62h4l1-5 5-1 1-5 5-1c0.1-0.62 0.21-1.24 0.31-1.88 0.69-2.12 0.69-2.12 3.69-4.12h3l1-6 5-1 1-5 5-1 1-5 5-1v-5c3.46-0.49 3.46-0.49 7-1l1-6 5-1v-11h145v1600h-145l-1-7-5-2-1-10c-1.21-0.37-1.21-0.37-2.44-0.75-0.84-0.41-1.69-0.83-2.56-1.25-0.14-0.66-0.29-1.32-0.44-2-0.18-0.66-0.37-1.32-0.56-2-3-1.3-3-1.3-6-2v-5h-5l-1-6h-5c-0.23-0.95-0.45-1.9-0.69-2.88-0.97-3.32-0.97-3.32-3.87-4.24-0.81-0.29-1.61-0.58-2.44-0.88-0.33-1.33-0.67-2.67-1-4-0.83-0.33-1.65-0.66-2.5-1-0.83-0.33-1.65-0.66-2.5-1-0.33-1.33-0.67-2.67-1-4-1.24-0.46-1.24-0.46-2.5-0.94-1.24-0.52-1.24-0.52-2.5-1.06-0.81-2.63-0.81-2.63-1-5h-5c-0.23-0.95-0.45-1.9-0.69-2.88-0.97-3.32-0.97-3.32-3.87-4.24-0.81-0.29-1.61-0.58-2.44-0.88-0.33-1.33-0.67-2.67-1-4-0.83-0.33-1.65-0.66-2.5-1-0.83-0.33-1.65-0.66-2.5-1-0.33-1.33-0.67-2.67-1-4-0.83-0.33-1.65-0.66-2.5-1-0.83-0.33-1.65-0.66-2.5-1-0.81-2.12-0.81-2.12-1-4l-5-1c-0.37-1.45-0.37-1.45-0.75-2.94-0.41-1.01-0.83-2.02-1.25-3.06-1.32-0.37-2.66-0.71-4-1-0.67-1.67-1.33-3.33-2-5-0.66-0.16-1.32-0.33-2-0.5-0.66-0.16-1.32-0.33-2-0.5-0.31-0.8-0.62-1.61-0.94-2.44-0.81-2.81-0.81-2.81-3.62-3.62-0.81-0.31-1.61-0.62-2.44-0.94-0.81-2.12-0.81-2.12-1-4l-5-1c-0.23-0.95-0.45-1.9-0.69-2.88-0.97-3.32-0.97-3.32-3.87-4.24-0.81-0.29-1.61-0.58-2.44-0.88-0.33-1.33-0.67-2.67-1-4-0.83-0.33-1.65-0.66-2.5-1-0.83-0.33-1.65-0.66-2.5-1-0.81-2.13-0.81-2.13-1-4l-5-1-1-6h-5c-0.23-0.95-0.45-1.9-0.69-2.88-0.97-3.32-0.97-3.32-3.87-4.24-0.81-0.29-1.61-0.58-2.44-0.88-0.37-1.32-0.71-2.66-1-4-1.98-1.28-1.98-1.28-4-2v-3h-2v-2l-5-1-1-5h-5c-0.23-0.95-0.45-1.9-0.69-2.88-0.97-3.32-0.97-3.32-3.87-4.24-0.81-0.29-1.61-0.58-2.44-0.88-0.33-1.33-0.67-2.67-1-4-0.83-0.33-1.65-0.66-2.5-1-0.83-0.33-1.65-0.66-2.5-1-0.33-1.33-0.67-2.67-1-4-1.24-0.46-1.24-0.46-2.5-0.94-1.24-0.52-1.24-0.52-2.5-1.06-0.81-2.62-0.81-2.62-1-5h-5c-0.23-0.95-0.45-1.9-0.69-2.88-0.97-3.32-0.97-3.32-3.87-4.24-0.81-0.29-1.61-0.58-2.44-0.88-0.33-1.33-0.67-2.67-1-4-0.83-0.33-1.65-0.66-2.5-1-0.83-0.33-1.65-0.66-2.5-1-0.33-1.33-0.67-2.67-1-4-0.83-0.33-1.65-0.66-2.5-1-0.83-0.33-1.65-0.66-2.5-1-0.81-2.12-0.81-2.12-1-4l-5-1c-0.23-0.95-0.45-1.9-0.69-2.88-1-3.31-1-3.31-3.93-4.5-0.79-0.2-1.57-0.41-2.38-0.62v-4c-0.78-0.06-1.57-0.12-2.38-0.19-1.29-0.4-1.29-0.4-2.62-0.81-0.68-1.66-1.35-3.33-2-5-0.83-0.33-1.65-0.66-2.5-1-2.5-1-2.5-1-3.81-3.62-0.23-0.79-0.46-1.57-0.69-2.38h-4c-0.23-0.95-0.45-1.9-0.69-2.88-0.97-3.32-0.97-3.32-3.87-4.24-0.81-0.29-1.61-0.58-2.44-0.88-0.33-1.33-0.67-2.67-1-4-0.83-0.33-1.65-0.66-2.5-1-0.83-0.33-1.65-0.66-2.5-1-0.33-1.33-0.67-2.67-1-4-0.8-0.31-1.61-0.62-2.44-0.94-2.56-1.06-2.56-1.06-3.87-3.68-0.23-0.79-0.46-1.57-0.69-2.38h-4c-0.23-0.95-0.45-1.9-0.69-2.88-0.97-3.32-0.97-3.32-3.87-4.24-0.81-0.29-1.61-0.58-2.44-0.88-0.33-1.33-0.67-2.67-1-4-0.83-0.33-1.65-0.66-2.5-1-0.83-0.33-1.65-0.66-2.5-1-0.81-2.12-0.81-2.12-1-4l-4-1v-2h-2c-0.06-0.62-0.12-1.24-0.19-1.88-0.4-1.05-0.4-1.05-0.81-2.12-0.83-0.33-1.65-0.66-2.5-1-0.83-0.33-1.65-0.66-2.5-1-0.81-2.12-0.81-2.12-1-4-0.62-0.06-1.24-0.12-1.88-0.19-1.05-0.4-1.05-0.4-2.12-0.81-0.67-1.67-1.33-3.33-2-5-0.66-0.16-1.32-0.33-2-0.5-0.66-0.16-1.32-0.33-2-0.5-0.31-0.8-0.62-1.61-0.94-2.44-0.81-2.81-0.81-2.81-3.62-3.62-0.81-0.31-1.61-0.62-2.44-0.94-0.81-2.12-0.81-2.12-1-4l-5-1c-0.23-0.95-0.45-1.9-0.69-2.88-0.97-3.32-0.97-3.32-3.87-4.24-0.81-0.29-1.61-0.58-2.44-0.88-0.33-1.33-0.67-2.67-1-4-0.83-0.33-1.65-0.66-2.5-1-0.83-0.33-1.65-0.66-2.5-1-0.81-2.12-0.81-2.12-1-4l-5-1-1-6h-5c-0.23-0.95-0.45-1.9-0.69-2.88-0.97-3.32-0.97-3.32-3.87-4.24-0.81-0.29-1.61-0.58-2.44-0.88-0.33-1.33-0.67-2.67-1-4-2.49-1.3-2.49-1.3-5-2l1-3h-2v-2l-5-1-1-5h-5c-0.23-0.95-0.45-1.9-0.69-2.88-0.97-3.32-0.97-3.32-3.87-4.24-0.81-0.29-1.61-0.58-2.44-0.88-0.33-1.33-0.67-2.67-1-4-2.49-1.3-2.49-1.3-5-2l1-3h-2v-2l-5-1-1-5h-5c-0.23-0.95-0.45-1.9-0.69-2.88-0.97-3.32-0.97-3.32-3.87-4.24-0.81-0.29-1.61-0.58-2.44-0.88-0.81-2.12-0.81-2.12-1-4-0.62-0.04-1.24-0.08-1.88-0.12-0.7-0.29-1.4-0.58-2.12-0.88-1.25-3.06-1.25-3.06-2-6-0.8-0.14-1.61-0.29-2.44-0.44-2.56-0.56-2.56-0.56-3.56-1.56-0.04-1.67-0.04-3.33 0-5l-5 1c-1.22-2.43-1.32-4.42-1.56-7.12-0.09-0.92-0.17-1.83-0.26-2.76-0.06-0.7-0.12-1.4-0.18-2.12l-5-2 1-4 5-1c-0.02-0.7-0.05-1.4-0.07-2.12-0.03-1.36-0.03-1.36-0.05-2.76-0.03-0.9-0.05-1.8-0.08-2.74 0.2-2.38 0.2-2.38 2.2-4.38 2.38-0.41 2.38-0.41 5.12-0.62 0.92-0.08 1.83-0.15 2.76-0.23 0.7-0.05 1.4-0.1 2.12-0.15 0.14-0.8 0.29-1.61 0.44-2.44 0.56-2.56 0.56-2.56 1.56-3.56 1.67-0.04 3.33-0.04 5 0l1-5 5-1 1-5 5-1c0.08-0.78 0.16-1.57 0.25-2.38 0.75-2.62 0.75-2.62 2.63-4 2.12-0.62 2.12-0.62 5.12 0.38l-1-6c1.98-0.33 3.96-0.66 6-1l1-5 5-1v-5c1.98-0.33 3.96-0.66 6-1 0.14-0.8 0.29-1.61 0.44-2.44 0.56-2.56 0.56-2.56 1.56-3.56 1.67-0.04 3.33-0.04 5 0 0.12-0.95 0.25-1.9 0.38-2.88 0.62-3.12 0.62-3.12 2.62-5.12h3l1-5h5l1-6h5c0.1-0.76 0.21-1.53 0.31-2.31 0.74-2.89 1.31-3.95 3.69-5.69h3l1-4 5-1 1-5 5-1 1-5 5-1c0.12-0.76 0.25-1.53 0.38-2.31 0.62-2.69 0.62-2.69 2.62-5.69l4 1c-0.02-0.8-0.04-1.61-0.06-2.44 0.06-2.56 0.06-2.56 1.06-3.56 1.67-0.04 3.33-0.04 5 0l1-5 5-1 1-5 5-1c0.12-0.76 0.25-1.53 0.38-2.31 0.62-2.69 0.62-2.69 2.62-5.69l5 2c-0.23-0.6-0.45-1.2-0.69-1.81-0.31-2.19-0.31-2.19 0.94-3.94 1.75-1.25 1.75-1.25 4.75-1.25l1-5 5-1 1-5 5-1c0.1-0.76 0.21-1.53 0.31-2.31 0.74-2.89 1.31-3.95 3.69-5.69h3l1-5h5l1-5 5-1 1-5 5-1c0.08-0.78 0.16-1.57 0.25-2.38 0.75-2.62 0.75-2.62 2.69-3.93 2.06-0.69 2.06-0.69 4.06-0.69l1-5c0.62-0.06 1.24-0.12 1.88-0.19 0.7-0.27 1.4-0.53 2.12-0.81 0.46-1.24 0.46-1.24 0.94-2.5 0.52-1.24 0.52-1.24 1.06-2.5 2.62-0.81 2.62-0.81 5-1l1-5 5-1 1-5c0.99-0.33 1.98-0.66 3-1v-2c2 1 2 1 3 2v-6c2.31-0.33 4.62-0.66 7-1-0.19-0.62-0.37-1.24-0.56-1.88-0.44-2.12-0.44-2.12 0.56-4.12h5l1-5 5-1c0.14-0.76 0.29-1.53 0.44-2.31 0.56-2.69 0.56-2.69 1.56-5.69 1.98 0.66 3.96 1.32 6 2l-1-6c1.98-0.33 3.96-0.66 6-1l1-5 5-1 1-5c0.62-0.06 1.24-0.12 1.88-0.19 2.39-0.63 2.39-0.63 3.31-3.31 0.4-1.24 0.4-1.24 0.81-2.5 1-1 1-1 3.56-1.06 0.81 0.02 1.61 0.04 2.44 0.06 0.12-0.95 0.25-1.9 0.38-2.88 0.62-3.12 0.62-3.12 2.62-5.12h3l1-5h5l1-6h5c0.19-1.14 0.19-1.14 0.38-2.31 0.62-2.69 0.62-2.69 2.62-5.69h3c0.47-0.83 0.95-1.65 1.44-2.5 0.51-0.83 1.03-1.65 1.56-2.5h4l1-5 5-1 1-5 5-1 1-6 5-1c1.11-2.79 1.11-2.79 1-5 1.98-0.33 3.96-0.66 6-1l1-5 5-1 1-6c0.99-0.33 1.98-0.66 3-1 0.99 0.5 0.99 0.5 2 1-0.04-0.78-0.08-1.57-0.12-2.38 0.12-2.62 0.12-2.62 2.12-4.62h4c0.14-0.8 0.29-1.61 0.44-2.44 0.56-2.56 0.56-2.56 1.56-3.56 1.67-0.04 3.33-0.04 5 0l1-5 5-1 1-6h5c-0.04-0.78-0.08-1.57-0.12-2.38 0.12-2.62 0.12-2.62 2.12-4.62h4l1-5 5-1c0.1-0.62 0.21-1.24 0.31-1.88 0.69-2.12 0.69-2.12 3.69-4.12h3l1-7 5 1c-0.04-0.78-0.08-1.57-0.12-2.38 0.12-2.62 0.12-2.62 2.12-4.62h4c-0.04-0.89-0.08-1.77-0.12-2.69 0.12-3.37 0.38-5.42 2.12-8.31 2.63-0.81 2.63-0.81 5-1l1-5 5-1c-0.02-0.77-0.05-1.54-0.07-2.34-0.03-1.5-0.03-1.5-0.05-3.04-0.04-1.49-0.04-1.49-0.08-3.02 0.2-2.6 0.2-2.6 2.2-4.6h4v-19c-1.98-0.33-3.96-0.66-6-1l1-4c-1.13-0.14-2.27-0.29-3.44-0.44-3.56-0.56-3.56-0.56-4.56-1.56-0.04-1.67-0.04-3.33 0-5-2.02 0.72-2.02 0.72-4 2-0.65 2.04-0.65 2.04-1 4-1.77 0.14-3.54 0.23-5.31 0.31-0.99 0.06-1.97 0.12-2.99 0.18-0.89-0.16-1.78-0.32-2.7-0.49-0.39-0.82-0.77-1.64-1.17-2.49-1.67-2.9-1.67-2.9-5.31-3.13-1.49-0.02-2.98-0.02-4.46 0-1.24 0-1.24 0-2.5-0.01-2.78-0.02-5.55 0.01-8.33 0.03-2.01 0-4.01-0.01-6.01-0.01-5.53-0.02-11 0-16.6 0.03-5.95 0.02-11.9 0.01-17.8 0.01-10.3 0-20.6 0.01-30.9 0.04-10.8 0.03-21.6 0.05-32.4 0.06h-2.04-10.2c-24.2 0.01-48.4 0.05-72.6 0.09-23.5 0.05-47 0.08-70.5 0.11h-2.2c-7.27 0-14.5 0.01-21.8 0.02-14.8 0.01-29.6 0.02-44.4 0.04h-2.07c-45.5 0.05-91 0.13-137 0.21l-2 5c-0.71 0.06-1.42 0.12-2.15 0.18-0.92 0.09-1.84 0.17-2.79 0.26-0.91 0.08-1.83 0.16-2.77 0.24-2.25 0.08-2.25 0.08-3.29 1.32-0.08 1.62-0.14 3.25-0.19 4.88-0.23 2.74-0.23 2.74-0.81 5.12-3 1.94-3 1.94-6 3l-1 3-5 1-1 7-5 1c-0.06 0.62-0.12 1.24-0.19 1.88-0.27 0.7-0.53 1.4-0.81 2.12-1.67 0.67-3.33 1.33-5 2-0.16 0.66-0.33 1.32-0.5 2-0.16 0.66-0.33 1.32-0.5 2-1.66 0.68-3.33 1.35-5 2-0.33 0.68-0.66 1.36-1 2.06-0.33 0.64-0.66 1.28-1 1.94-2.63 0.75-2.63 0.75-5 1l-1 6h-5c-0.06 0.95-0.12 1.9-0.19 2.88-0.27 1.03-0.53 2.06-0.81 3.12-2.5 1.12-2.5 1.12-5 2-0.89 2.04-0.89 2.04-1 4h-6l-1 7c-0.8 0.25-1.61 0.5-2.44 0.75-2.73 0.97-2.73 0.97-3.37 3.37-0.06 0.62-0.13 1.24-0.19 1.88l-5 1-1 6-5 1-1 5c-0.78 0.06-1.57 0.12-2.38 0.19-0.86 0.27-1.73 0.53-2.62 0.81-0.33 0.83-0.66 1.65-1 2.5-0.33 0.83-0.66 1.65-1 2.5-2.62 0.81-2.62 0.81-5 1-0.06 0.78-0.12 1.57-0.19 2.38-0.27 0.86-0.53 1.73-0.81 2.62-1.65 0.7-3.32 1.37-5 2-0.89 2.04-0.89 2.04-1 4-0.93 0.06-0.93 0.06-1.88 0.12-0.7 0.29-1.4 0.58-2.12 0.88-1.3 3-1.3 3-2 6h-2v-2c-3.27 1.71-3.27 1.71-3.88 5-0.37 0.99-0.74 1.98-1.12 3-1.64 0.72-3.31 1.39-5 2-0.89 2.04-0.89 2.04-1 4l-5 1c-0.06 1.14-0.06 1.14-0.12 2.31-0.88 2.69-0.88 2.69-3.94 4.5-0.97 0.39-1.94 0.79-2.94 1.19l1 3h-6c-0.23 1.11-0.45 2.23-0.69 3.38-0.43 1.19-0.86 2.39-1.31 3.62-2.56 1.19-2.56 1.19-5 2-0.16 0.66-0.33 1.32-0.5 2-0.16 0.66-0.33 1.32-0.5 2-1.67 0.67-3.33 1.33-5 2-0.89 2.04-0.89 2.04-1 4-1.98 0.33-3.96 0.66-6 1l1 5c-1.13 0.41-2.27 0.83-3.44 1.25-1.17 0.58-2.35 1.15-3.56 1.75-0.65 2.02-0.65 2.02-1 4-1.67 0.67-3.33 1.33-5 2-0.16 0.66-0.33 1.32-0.5 2-0.16 0.66-0.33 1.32-0.5 2-1.67 0.67-3.33 1.33-5 2-0.14 0.64-0.29 1.28-0.44 1.94-0.56 2.06-0.56 2.06-3.62 3.81-0.97 0.41-1.94 0.83-2.94 1.25l1 3c-2.31 0.33-4.62 0.66-7 1l-1 6h-5c-0.06 0.95-0.12 1.9-0.19 2.88-0.27 1.03-0.53 2.06-0.81 3.12-2.5 1.13-2.5 1.13-5 2-0.89 2.04-0.89 2.04-1 4-0.93 0.09-0.93 0.09-1.88 0.19-0.7 0.27-1.4 0.53-2.12 0.81-0.31 0.8-0.62 1.61-0.94 2.44-0.35 0.84-0.7 1.69-1.06 2.56-0.85 0.33-1.69 0.66-2.56 1-0.81 0.33-1.61 0.66-2.44 1-0.89 2.55-0.89 2.55-1 5l-5 1-2 6-5 1c-0.06 0.62-0.12 1.24-0.19 1.88-0.27 0.7-0.53 1.4-0.81 2.12-1.67 0.67-3.33 1.33-5 2-0.89 2.04-0.89 2.04-1 4h-5c-0.25 0.95-0.5 1.9-0.75 2.88-1.44 3.6-1.96 3.58-5.25 5.12-0.33 0.85-0.66 1.69-1 2.56-0.33 0.81-0.66 1.61-1 2.44-0.66 0.14-1.32 0.29-2 0.44-0.66 0.18-1.32 0.37-2 0.56-1.3 3-1.3 3-2 6l-5 1v4c-0.95 0.23-1.9 0.45-2.88 0.69-3.32 0.97-3.32 0.97-4.24 3.87-0.29 0.81-0.58 1.61-0.88 2.44-1.33 0.33-2.67 0.67-4 1-0.31 0.8-0.62 1.61-0.94 2.44-1.06 2.56-1.06 2.56-3.68 3.87-0.79 0.23-1.57 0.46-2.38 0.69v5h-5c-0.23 0.78-0.45 1.57-0.69 2.38-1.66 3.32-2.97 3.28-6.31 4.62-1.36 2.52-1.36 2.52-2 5l-4-1-2 7-5 1c-0.06 0.78-0.12 1.57-0.19 2.38-0.27 0.86-0.53 1.73-0.81 2.62-1.65 0.7-3.32 1.37-5 2-0.16 0.66-0.33 1.32-0.5 2-0.16 0.66-0.33 1.32-0.5 2-1.24 0.46-1.24 0.46-2.5 0.94-1.24 0.52-1.24 0.52-2.5 1.06-0.89 2.55-0.89 2.55-1 5-0.78 0.06-1.57 0.12-2.38 0.19-1.29 0.4-1.29 0.4-2.62 0.81-0.33 0.83-0.66 1.65-1 2.5-0.33 0.83-0.66 1.65-1 2.5-2.63 0.81-2.63 0.81-5 1-0.04 0.76-0.08 1.53-0.12 2.31-0.88 2.69-0.88 2.69-3.94 4.5-0.97 0.39-1.94 0.79-2.94 1.19v3c-0.78 0.23-1.57 0.45-2.38 0.69-2.84 1.06-2.84 1.06-3.62 3.81-0.33 0.83-0.66 1.65-1 2.5-1.66 0.69-3.32 1.36-5 2-0.89 2.04-0.89 2.04-1 4l-5 1-1 5c-1.98 0.33-3.96 0.66-6 1l1 5h-3c-2.56 1.5-3.78 2.35-4.75 5.19-0.08 0.6-0.16 1.19-0.25 1.81h-5c-0.06 0.95-0.12 1.9-0.19 2.88-0.27 1.03-0.53 2.06-0.81 3.12-2.5 1.12-2.5 1.12-5 2-0.89 2.04-0.89 2.04-1 4l-5 1v5c-2.08 0.55-3.84 1-6 1l-1 6c-1.98 0.33-3.96 0.66-6 1l-1 5-5 1c-0.06 0.78-0.12 1.57-0.19 2.38-0.27 0.86-0.53 1.73-0.81 2.62-1.67 0.67-3.33 1.33-5 2-0.89 2.55-0.89 2.55-1 5-0.97 0.27-1.94 0.54-2.94 0.81-1.01 0.39-2.02 0.79-3.06 1.19l-1 3c-1.05 0.13-1.05 0.13-2.12 0.26-2.72 0.42-5.26 0.88-7.88 1.74-1.39 2.43-1.39 2.43-2 5-0.85 0.33-1.69 0.66-2.56 1-0.81 0.33-1.61 0.66-2.44 1-0.89 2.55-0.89 2.55-1 5l-4-1-2 5 6 3v4c0.9 0.19 0.9 0.19 1.81 0.38 2.19 0.62 2.19 0.62 5.19 2.62l1 3c0.64 0.29 1.28 0.58 1.94 0.88 2.06 1.12 2.06 1.12 2.94 3.56 1.54 3.52 3.72 3.97 7.12 5.56l1 3c0.66 0.31 1.32 0.62 2 0.94 0.66 0.35 1.32 0.7 2 1.06 0.14 0.66 0.29 1.32 0.44 2 0.18 0.66 0.37 1.32 0.56 2 0.83 0.33 1.65 0.66 2.5 1 0.83 0.33 1.65 0.66 2.5 1 0.33 1.33 0.67 2.67 1 4 0.83 0.33 1.65 0.66 2.5 1 0.83 0.33 1.65 0.66 2.5 1 0.33 1.33 0.67 2.67 1 4 2.41 1.25 2.41 1.25 5 2l2 1c0.15 0.96 0.15 0.96 0.31 1.94 0.23 0.68 0.46 1.36 0.69 2.06 2.49 1.3 2.49 1.3 5 2v5l5 1c0.04 0.62 0.08 1.24 0.12 1.88 0.29 0.7 0.58 1.4 0.88 2.12 1.99 0.7 3.99 1.37 6 2l1 3-1 2c1.98 0.33 3.96 0.66 6 1 0.09 1.18 0.09 1.18 0.19 2.38 0.27 0.86 0.53 1.73 0.81 2.62 1.65 0.7 3.32 1.37 5 2 0.33 1.33 0.67 2.67 1 4 0.83 0.33 1.65 0.66 2.5 1 0.83 0.33 1.65 0.66 2.5 1 0.33 1.33 0.67 2.67 1 4 1.21 0.46 1.21 0.46 2.44 0.94 1.27 0.52 1.27 0.52 2.56 1.06 0.33 0.85 0.66 1.69 1 2.56 0.33 0.81 0.66 1.61 1 2.44 0.83 0.16 1.65 0.33 2.5 0.5 0.83 0.16 1.65 0.33 2.5 0.5 0.7 1.65 1.37 3.32 2 5 2.04 0.89 2.04 0.89 4 1 0.09 1.18 0.09 1.18 0.19 2.38 0.27 0.86 0.53 1.73 0.81 2.62 1.65 0.7 3.32 1.37 5 2 0.14 0.66 0.29 1.32 0.44 2 0.18 0.66 0.37 1.32 0.56 2 0.99 0.33 1.98 0.66 3 1 0.99 0.33 1.98 0.66 3 1 0.56 1.94 0.56 1.94 1 4 0.8 0.47 1.61 0.95 2.44 1.44 3.04 1.85 3.56 3.21 4.56 6.56 0.99-0.33 1.98-0.66 3-1 0.23 0.95 0.45 1.9 0.69 2.88 0.97 3.32 0.97 3.32 3.87 4.24 0.81 0.29 1.61 0.58 2.44 0.88 0.81 2.12 0.81 2.12 1 4l5 1v2h2v3l5 2v4c1.98 0.66 3.96 1.32 6 2 0.09 1.18 0.09 1.18 0.19 2.38 0.27 0.86 0.53 1.73 0.81 2.62 1.65 0.7 3.32 1.37 5 2 0.33 1.33 0.67 2.67 1 4 0.83 0.33 1.65 0.66 2.5 1 0.83 0.33 1.65 0.66 2.5 1 0.33 1.33 0.67 2.67 1 4 1.66 0.69 3.33 1.35 5 2 2.69 2.5 2.69 2.5 5 5l2 2c0.1 0.66 0.21 1.32 0.31 2 0.23 0.66 0.46 1.32 0.69 2 0.83 0.33 1.65 0.66 2.5 1 0.83 0.33 1.65 0.66 2.5 1 0.33 1.33 0.67 2.67 1 4 0.83 0.33 1.65 0.66 2.5 1 0.83 0.33 1.65 0.66 2.5 1 0.33 1.33 0.67 2.67 1 4 1.18 0.46 1.18 0.46 2.38 0.94 3.35 1.35 3.86 2.99 5.62 6.06l2.12 1.06c0.93 0.47 0.93 0.47 1.88 0.94 0.14 0.66 0.29 1.32 0.44 2 0.18 0.66 0.37 1.32 0.56 2 0.83 0.33 1.65 0.66 2.5 1 0.83 0.33 1.65 0.66 2.5 1 0.33 1.33 0.67 2.67 1 4 1.21 0.46 1.21 0.46 2.44 0.94 1.27 0.52 1.27 0.52 2.56 1.06 0.33 0.85 0.66 1.69 1 2.56 0.33 0.81 0.66 1.61 1 2.44 2.55 0.89 2.55 0.89 5 1 0.09 1.18 0.09 1.18 0.19 2.38 0.27 0.86 0.53 1.73 0.81 2.62 1.65 0.7 3.32 1.37 5 2 0.33 1.33 0.67 2.67 1 4 0.83 0.33 1.65 0.66 2.5 1 0.83 0.33 1.65 0.66 2.5 1 0.33 1.33 0.67 2.67 1 4 1.21 0.46 1.21 0.46 2.44 0.94 2.56 1.06 2.56 1.06 3.62 3.62 0.31 0.81 0.62 1.61 0.94 2.44 1.33 0.34 2.66 0.68 4 1 0.47 0.8 0.95 1.61 1.44 2.44 1.89 3.1 3.29 3.27 6.56 4.56 0.37 1.32 0.71 2.66 1 4 1.98 1.28 1.98 1.28 4 2v4c1.98 0.66 3.96 1.32 6 2v4h2v2c0.99-0.33 1.98-0.66 3-1l1 3h2v4l5 1c0.06 0.62 0.12 1.24 0.19 1.88 0.27 0.7 0.53 1.4 0.81 2.12 0.83 0.33 1.65 0.66 2.5 1 0.83 0.33 1.65 0.66 2.5 1 0.33 1.33 0.67 2.67 1 4 2.49 1.3 2.49 1.3 5 2v4c0.6 0.1 1.2 0.21 1.81 0.31 2.53 0.8 3.54 1.65 5.19 3.69l1 3c1.24 0.46 1.24 0.46 2.5 0.94 1.24 0.52 1.24 0.52 2.5 1.06 0.33 1.33 0.67 2.67 1 4 1.66 0.68 3.33 1.35 5 2 0.7 1.32 1.37 2.65 2 4 2.03 1.27 2.03 1.27 4 2v4c0.6 0.1 1.2 0.21 1.81 0.31 2.53 0.8 3.54 1.65 5.19 3.69l1 3c1.24 0.46 1.24 0.46 2.5 0.94 1.24 0.52 1.24 0.52 2.5 1.06 0.33 1.33 0.67 2.67 1 4 0.83 0.33 1.65 0.66 2.5 1 0.83 0.33 1.65 0.66 2.5 1 0.33 1.33 0.67 2.67 1 4 0.83 0.33 1.65 0.66 2.5 1 0.83 0.33 1.65 0.66 2.5 1 0.33 1.33 0.67 2.67 1 4 1.66 0.67 3.33 1.34 5 2 1.38 1.63 2.71 3.3 4 5 0.72 0.54 1.44 1.07 2.19 1.62 1.81 1.38 1.81 1.38 2.81 4.38 2 1.21 2 1.21 4 2v4c0.97 0.25 1.94 0.49 2.94 0.75 1.01 0.41 2.02 0.83 3.06 1.25 0.37 1.32 0.71 2.66 1 4 1.21 0.46 1.21 0.46 2.44 0.94 2.56 1.06 2.56 1.06 3.62 3.62 0.31 0.81 0.62 1.61 0.94 2.44 0.99 0.25 0.99 0.25 2 0.5 0.99 0.25 0.99 0.25 2 0.5 0.31 0.8 0.62 1.61 0.94 2.44 0.81 2.8 0.81 2.8 3.56 3.62 1.24 0.47 1.24 0.47 2.5 0.94 0.7 1.32 1.37 2.65 2 4 2.03 1.27 2.03 1.27 4 2v5c0.76-0.06 1.53-0.12 2.31-0.19 2.69 0.19 2.69 0.19 4.5 1.5 1.19 1.69 1.19 1.69 1.19 4.69 0.62 0.06 1.24 0.12 1.88 0.19 0.7 0.27 1.4 0.53 2.12 0.81 0.31 0.8 0.62 1.61 0.94 2.44 0.83 2.81 0.83 2.81 3.68 3.87 0.79 0.23 1.57 0.46 2.38 0.69v4c1.98 0.66 3.96 1.32 6 2v5l7 2-1 2 1 2c0.83 0.16 1.65 0.33 2.5 0.5 0.83 0.16 1.65 0.33 2.5 0.5 1 2 1 2 1 13h-924v-1600zm1443 20v5h1v-5h-1zm-25 26 1 4zm-56 56 1 4zm-54 53 4 1zm-41 42 1 2 1-2h-2zm-200 200 1 2 1-2h-2zm-200 200 1 2 1-2h-2zm-84 83 4 1zm-50 50 4 1zm-25 25 4 1zm-24 25 4 1zm734 16 1 4zm-800 50 1 4zm-10 9 4 1zm-25 25 4 1zm190 3 1 2zm-205 13 1 2zm747 3 4 1zm-782 31 4 1zm-25 25 4 1zm735 18-1 2h2l-1-2zm-589 30 1 2zm-293 23 1 3zm754 73 4 1z" fill="#FBFDFD"/>
<path transform="translate(293,639)" d="m0 0 1 4z" fill="#000100"/>
<path transform="translate(318,614)" d="m0 0 1 4z" fill="#000100"/>
<path transform="translate(368,564)" d="m0 0 1 4z" fill="#3F403F"/>
<path transform="translate(493,439)" d="m0 0 1 4z" fill="#000100"/>
<path transform="translate(518,414)" d="m0 0 1 4z" fill="#000100"/>
<path transform="translate(693,239)" d="m0 0 1 4z" fill="#000100"/>
<path transform="translate(768,164)" d="m0 0 1 4z" fill="#3F403F"/>
<path transform="translate(402,1055)" d="m0 0c3 1 3 1 3 1z" fill="#FCFEFE"/>
<path transform="translate(496,967)" d="m0 0 2 1z" fill="#FCFEFE"/>
<path transform="translate(1358,854)" d="m0 0 2 1z" fill="#FCFEFE"/>
<path transform="translate(819,836)" d="m0 0 2 1z" fill="#000100"/>
<path transform="translate(696,767)" d="m0 0 2 1z" fill="#FCFEFE"/>
<path transform="translate(908,554)" d="m0 0 2 1z" fill="#FCFEFE"/>
<path transform="translate(1108,354)" d="m0 0 2 1z" fill="#FCFEFE"/>
<path transform="translate(1296,167)" d="m0 0 2 1z" fill="#FCFEFE"/>
</svg>
