<svg xmlns="http://www.w3.org/2000/svg" fill="none" viewBox="0 0 24 24" height="24" width="24">
<path fill="white" d="M2.59233 0C1.16063 0 0 1.16063 0 2.59233V21.4077C0 22.8394 1.16063 24 2.59233 24H21.4077C22.8394 24 24 22.8394 24 21.4077V2.59233C24 1.16063 22.8394 0 21.4077 0H2.59233ZM13.5832 10.5986L13.5833 10.5986C13.8674 10.5231 14.1464 10.4491 14.4852 10.363C14.6012 10.334 14.6399 10.2857 14.5819 10.1987C14.3402 9.63794 13.9728 9.1739 13.4604 8.83553C12.6773 8.30382 11.8073 8.19747 10.8985 8.36182C9.78674 8.56484 8.87799 9.13523 8.19159 10.0343C7.55354 10.8657 7.24417 11.8131 7.36985 12.8669C7.47619 13.7563 7.88223 14.4717 8.59763 15.0131C9.37104 15.5932 10.2508 15.7768 11.1982 15.6512C12.3486 15.4965 13.2574 14.9261 13.9535 14.0077C14.1113 13.7997 14.2465 13.581 14.3595 13.3527C14.5224 13.9413 14.8503 14.447 15.3263 14.8584C16.003 15.4385 16.8054 15.6898 17.6851 15.7092C17.7713 15.6992 17.8587 15.6916 17.9467 15.6838L17.9468 15.6838C18.1155 15.669 18.287 15.6539 18.4585 15.6222C19.3576 15.4385 20.1407 15.0324 20.7788 14.3847C21.6778 13.476 22.0549 12.4125 21.8905 11.1074C21.7648 10.1793 21.2911 9.47359 20.5274 8.95154C19.6863 8.38116 18.7582 8.28448 17.7721 8.4585C16.6217 8.66152 15.771 9.14489 15.0652 10.073C14.7628 10.4688 14.5361 10.8871 14.3964 11.3298H11.2852C11.1402 11.3298 11.0725 11.4264 11.0435 11.4844C10.9082 11.7358 10.6762 12.2385 10.5505 12.5382C10.4828 12.7026 10.5311 12.8282 10.7342 12.8282H12.6C12.575 12.8632 12.5513 12.8969 12.5284 12.9294L12.5284 12.9295C12.4627 13.0229 12.4035 13.1071 12.339 13.1859C11.9039 13.679 11.3529 13.911 10.6955 13.824C9.93176 13.7177 9.40004 13.0796 9.39037 12.3062C9.3807 11.5231 9.71907 10.8947 10.3765 10.4694C10.9275 10.1117 11.5172 10.0246 12.1263 10.3243C12.3293 10.421 12.4357 10.5274 12.5807 10.6917C12.7016 10.8312 12.7151 10.8276 12.845 10.7927L12.861 10.7884C13.1269 10.7198 13.3567 10.6588 13.5832 10.5986L13.5832 10.5986L13.5832 10.5986ZM3.54148 10.4887C3.52214 10.5177 3.53181 10.537 3.57048 10.537L7.07014 10.5467C7.09914 10.5467 7.14748 10.5177 7.16682 10.4887L7.33116 10.2373C7.3505 10.2083 7.34083 10.1793 7.30216 10.1793H3.85084C3.81217 10.1793 3.76383 10.1987 3.7445 10.2277L3.54148 10.4887ZM2.08169 11.3781C2.06235 11.4071 2.07202 11.4264 2.11069 11.4264L6.68345 11.4168C6.72212 11.4168 6.76079 11.3974 6.77046 11.3588L6.8478 11.1267C6.85746 11.0977 6.83813 11.0687 6.79946 11.0687H2.39105C2.35238 11.0687 2.30404 11.0881 2.28471 11.1171L2.08169 11.3781ZM4.45025 12.3159C4.41158 12.3159 4.40191 12.2869 4.42125 12.2578L4.55659 12.0162C4.57593 11.9872 4.6146 11.9582 4.65327 11.9582H6.58678C6.62545 11.9582 6.64478 11.9872 6.64478 12.0258L6.62545 12.2578C6.62545 12.2965 6.58678 12.3255 6.55778 12.3255L4.45025 12.3159ZM19.986 11.8035C19.9832 11.7668 19.9812 11.7325 19.9793 11.7001C19.9747 11.6213 19.9707 11.5529 19.957 11.4844C19.783 10.5274 18.9032 9.98597 17.9848 10.1987C17.0857 10.4017 16.5057 10.9721 16.293 11.8808C16.119 12.6349 16.4864 13.3986 17.1824 13.708C17.7141 13.94 18.2459 13.911 18.7582 13.65C19.522 13.2536 19.9377 12.6349 19.986 11.8035Z" clip-rule="evenodd" fill-rule="evenodd"/>
</svg>