<?xml version="1.0" encoding="UTF-8"?>
<svg version="1.1" viewBox="0 0 1600 1600" width="1280" height="1280" xmlns="http://www.w3.org/2000/svg">
<path transform="translate(824)" d="m0 0h656v5c0.8-0.02 1.61-0.04 2.44-0.06 2.56 0.06 2.56 0.06 3.56 1.06 0.04 1.67 0.04 3.33 0 5l7 2 1 5h4c0.23 0.78 0.45 1.57 0.69 2.38 1.09 2.84 1.09 2.84 3.93 3.93 0.79 0.23 1.57 0.46 2.38 0.69v5c0.78-0.04 1.57-0.08 2.38-0.12 2.62 0.12 2.62 0.12 4.62 2.12v3c1.98 0.66 3.96 1.32 6 2 0.09 1.18 0.09 1.18 0.19 2.38 0.27 0.86 0.53 1.73 0.81 2.62 1.65 0.7 3.32 1.37 5 2 0.33 1.33 0.67 2.67 1 4 0.83 0.33 1.65 0.66 2.5 1 0.83 0.33 1.65 0.66 2.5 1 0.33 1.33 0.67 2.67 1 4 0.83 0.33 1.65 0.66 2.5 1 0.83 0.33 1.65 0.66 2.5 1 0.14 0.66 0.29 1.32 0.44 2 0.18 0.66 0.37 1.32 0.56 2 0.97 0.29 1.94 0.58 2.94 0.88 1.01 0.37 2.02 0.74 3.06 1.12 1.38 3.13 1.38 3.13 2 6 1.49-0.5 1.49-0.5 3-1v2h2l-1 4c0.95 0.29 1.9 0.58 2.88 0.88 3.12 1.12 3.12 1.12 5.12 3.12v3c2.47 0.5 2.47 0.5 5 1v5c0.78 0.06 1.57 0.12 2.38 0.19 0.86 0.27 1.73 0.53 2.62 0.81 0.68 1.66 1.35 3.33 2 5 1.66 0.69 3.32 1.36 5 2 0.33 1.33 0.67 2.67 1 4 2.49 1.3 2.49 1.3 5 2v5c0.78 0.08 1.57 0.17 2.38 0.25 0.86 0.25 1.73 0.5 2.62 0.75 0.67 1.33 1.33 2.67 2 4 1.01 0.5 2.02 0.99 3.06 1.5 2.94 1.5 2.94 1.5 3.82 3.69 0.06 0.89 0.06 0.89 0.12 1.81 1.98 0.33 3.96 0.66 6 1v1362c-1.98 0.66-3.96 1.32-6 2v4c-1.13 0.41-2.27 0.83-3.44 1.25-1.17 0.58-2.35 1.15-3.56 1.75-0.65 2.02-0.65 2.02-1 4-1.67 0.67-3.33 1.33-5 2-0.89 2.04-0.89 2.04-1 4l-5 1c-0.06 0.78-0.12 1.57-0.19 2.38-0.27 0.86-0.53 1.73-0.81 2.62-1.67 0.67-3.33 1.33-5 2-0.89 2.55-0.89 2.55-1 5-0.99-0.33-1.98-0.66-3-1-2.41 2.09-2.41 2.09-3.38 5.06-0.2 0.64-0.41 1.28-0.62 1.94-1.67 0.67-3.33 1.33-5 2-0.16 0.66-0.33 1.32-0.5 2-0.16 0.66-0.33 1.32-0.5 2-1.67 0.67-3.33 1.33-5 2-0.16 0.66-0.33 1.32-0.5 2-0.16 0.66-0.33 1.32-0.5 2-2.56 1.25-2.56 1.25-5 2v5l-5-2c-1.41 2.64-2.37 5.07-3 8l-5 1c-0.06 0.78-0.12 1.57-0.19 2.38-0.27 0.86-0.53 1.73-0.81 2.62-1.65 0.7-3.32 1.37-5 2-0.16 0.66-0.33 1.32-0.5 2-0.16 0.66-0.33 1.32-0.5 2-1.66 0.68-3.33 1.35-5 2-0.68 1.32-1.35 2.66-2 4-0.85 0.49-1.69 0.99-2.56 1.5-2.63 1.22-2.63 1.22-2.94 3.56-0.16 0.64-0.33 1.28-0.5 1.94-1.67 0.67-3.33 1.33-5 2-0.16 0.66-0.33 1.32-0.5 2-0.16 0.66-0.33 1.32-0.5 2-1.67 0.67-3.33 1.33-5 2-0.14 0.66-0.29 1.32-0.44 2-0.18 0.66-0.37 1.32-0.56 2-3.06 1.25-3.06 1.25-6 2l-1 5h-5c-0.06 0.78-0.12 1.57-0.19 2.38-0.27 0.86-0.53 1.73-0.81 2.62-2.56 1.31-2.56 1.31-5 2v6h-632c0-155 0-155 2-157h4c-0.01-0.7-0.02-1.4-0.04-2.12 0-0.91-0.01-1.82-0.02-2.76-0.01-0.9-0.03-1.8-0.04-2.74 0.1-2.38 0.1-2.38 1.1-4.38h4c0.31-0.97 0.62-1.94 0.94-2.94 1.06-3.06 1.06-3.06 2.06-4.06 1.67-0.04 3.33-0.04 5 0l1-5 5-1 1-5 5-1c0.12-0.78 0.25-1.57 0.38-2.38 0.62-2.62 0.62-2.62 2.62-4.62h4l1-5 5-1 1-5 5-1 1-5 5-1c0.14-0.8 0.29-1.61 0.44-2.44 0.56-2.56 0.56-2.56 1.56-3.56 1.67-0.04 3.33-0.04 5 0-0.04-0.78-0.08-1.57-0.12-2.38 0.12-2.62 0.12-2.62 2.12-4.62h4l1-5 5-1 1-5 5-1c0.08-0.78 0.16-1.57 0.25-2.38 0.75-2.62 0.75-2.62 2.69-4 2.06-0.62 2.06-0.62 4.06 0.38-0.04-0.78-0.08-1.57-0.12-2.38 0.12-2.62 0.12-2.62 2.12-4.62h4l1-5 5-1 1-5 5-1c0.12-0.78 0.25-1.57 0.38-2.38 0.62-2.62 0.62-2.62 2.62-4.62h4l1-5 5-1 1-5 5-1c0.08-0.95 0.16-1.9 0.25-2.88 0.37-1.54 0.37-1.54 0.75-3.12 0.65-0.3 1.3-0.6 1.98-0.91 2.22-0.91 2.22-0.91 2.78-3.18 0.12-0.8 0.24-1.59 0.36-2.41 0.69-4.31 0.69-4.31 2.88-6.5h4l1-5 5-1 1-5 5-1c-0.02-0.77-0.05-1.54-0.07-2.34-0.02-1-0.04-2-0.05-3.04-0.03-0.99-0.05-1.99-0.08-3.02 0.2-2.6 0.2-2.6 2.2-4.6h4c-0.03-0.69-0.07-1.37-0.11-2.08-0.02-0.9-0.05-1.8-0.08-2.73-0.03-0.9-0.07-1.79-0.1-2.71 0.29-2.48 0.29-2.48 1.61-4.3 1.68-1.18 1.68-1.18 4.68-1.18 0.07-1.05 0.07-1.05 0.15-2.12 0.07-0.91 0.15-1.82 0.23-2.76 0.06-0.9 0.13-1.8 0.21-2.74 0.41-2.38 0.41-2.38 2.41-4.38h4l1-5 5-1 1-5 5-1c-0.04-0.87-0.08-1.73-0.12-2.62 0.12-3.5 0.88-6.13 2.12-9.38l5-1 1-5 5-1 1-5 5-1c-0.02-0.77-0.05-1.54-0.07-2.34-0.02-1-0.04-2-0.05-3.04-0.03-0.99-0.05-1.99-0.08-3.02 0.2-2.6 0.2-2.6 2.2-4.6h4c-0.02-0.64-0.05-1.28-0.07-1.94-0.11-5.47 0.27-9.89 2.07-15.1l5-1c0.06-0.95 0.12-1.9 0.19-2.88 0.27-1.03 0.53-2.06 0.81-3.12 1.65-0.72 3.31-1.38 5-2 1.36-2.52 1.36-2.52 2-5h4l1-5 5-1c0.08-0.95 0.16-1.9 0.25-2.88 0.37-1.54 0.37-1.54 0.75-3.12 0.65-0.3 1.3-0.6 1.98-0.91 2.22-0.91 2.22-0.91 2.78-3.18 0.18-1.19 0.18-1.19 0.36-2.41 0.69-4.31 0.69-4.31 2.88-6.5h4l1-5 5-1c-0.03-1.16-0.03-1.16-0.07-2.34-0.02-1-0.04-2-0.05-3.04-0.03-0.99-0.05-1.99-0.08-3.02 0.2-2.6 0.2-2.6 2.2-4.6h4c-0.02-0.64-0.05-1.28-0.07-1.94-0.11-5.47 0.27-9.89 2.07-15.1l5-1c-0.06-1.18-0.06-1.18-0.12-2.38 0.12-2.62 0.12-2.62 2.12-4.62h4c-0.02-0.7-0.05-1.4-0.07-2.12-0.02-0.91-0.04-1.82-0.05-2.76-0.03-0.9-0.05-1.8-0.08-2.74 0.2-2.38 0.2-2.38 2.2-4.38h4c-0.01-0.9-0.02-1.8-0.03-2.72-0.04-3.33-0.06-6.66-0.08-9.99-0.01-1.44-0.02-2.88-0.04-4.32-0.03-2.07-0.04-4.14-0.05-6.21-0.01-1.25-0.02-2.49-0.03-3.78 0.23-2.98 0.23-2.98 2.23-4.98h4c-0.01-0.64-0.02-1.28-0.04-1.94-0.05-5.13-0.01-10 1.04-15.1l2-2h3c0.05-0.7 0.1-1.4 0.15-2.12 0.07-0.91 0.15-1.82 0.23-2.76 0.06-0.9 0.13-1.8 0.21-2.74 0.41-2.38 0.41-2.38 2.41-4.38h4c-0.02-0.7-0.05-1.4-0.07-2.12-0.02-0.91-0.04-1.82-0.05-2.76-0.03-0.9-0.05-1.8-0.08-2.74 0.2-2.38 0.2-2.38 2.2-4.38h4c0-0.92-0.01-1.85-0.01-2.8-0.04-8.68-0.07-17.4-0.09-26-0.01-4.47-0.03-8.93-0.05-13.4-0.02-4.31-0.03-8.61-0.04-12.9 0-1.64-0.01-3.29-0.02-4.93-0.02-2.3-0.02-4.6-0.02-6.9 0-1.31-0.01-2.62-0.01-3.97 0.24-3.05 0.24-3.05 2.24-5.05h4c-0.01-0.66-0.02-1.32-0.03-2-0.04-3.02-0.07-6.04-0.09-9.06-0.02-1.04-0.04-2.08-0.06-3.15-0.03-5.68 0.25-10.4 2.18-15.8l5-1 1-5 5-1c-0.04-0.78-0.08-1.57-0.12-2.38 0.12-2.62 0.12-2.62 2.12-4.62h4l-1-236-5-2c-0.33-1.33-0.67-2.67-1-4-0.83-0.33-1.65-0.66-2.5-1-0.83-0.33-1.65-0.66-2.5-1-0.81-2.12-0.81-2.12-1-4-0.93-0.06-0.93-0.06-1.88-0.12-2.12-0.88-2.12-0.88-3.24-3.32-1.12-4.55-1.1-8.77-1-13.4 0-0.87 0.01-1.75 0.02-2.66 0.03-2.15 0.06-4.31 0.1-6.46h-5c-1.32-2.64-1.16-4.68-1.21-7.64-0.02-1.18-0.04-2.37-0.06-3.58-0.02-1.92-0.02-1.92-0.05-3.88-0.02-1.31-0.04-2.62-0.06-3.96-0.05-3.48-0.1-6.95-0.15-10.4-0.05-3.54-0.11-7.09-0.16-10.6-0.11-6.96-0.21-13.9-0.31-20.9-0.64-0.1-1.28-0.21-1.94-0.32-0.68-0.22-1.36-0.45-2.06-0.68-0.46-1.45-0.46-1.45-0.94-2.94-0.35-1.01-0.7-2.02-1.06-3.06-1.66-0.69-3.32-1.36-5-2-0.33-1.67-0.67-3.33-1-5-0.83-0.31-1.65-0.62-2.5-0.94-0.83-0.35-1.65-0.7-2.5-1.06-1.27-4.9-1.12-9.85-1.06-14.9 0-0.78 0.01-1.56 0.01-2.37 0.01-1.92 0.03-3.83 0.05-5.75h-5c-1.42-2.85-1.22-5.36-1.32-8.54-0.04-1.3-0.08-2.6-0.12-3.94l-0.12-4.14c-0.05-1.39-0.09-2.78-0.13-4.17-0.11-3.4-0.21-6.81-0.31-10.2l-5-2-1-10c-1.21-0.34-1.21-0.34-2.44-0.69-0.84-0.43-1.69-0.86-2.56-1.31-0.33-1.67-0.67-3.33-1-5-2.47-1.16-2.47-1.16-5-2-0.96-2.88-1.12-4.68-1.1-7.67 0.01-1.34 0.01-1.34 0.01-2.7 0.01-0.93 0.02-1.86 0.03-2.82 0-0.94 0.01-1.88 0.01-2.85 0.01-2.32 0.03-4.64 0.05-6.96h-5c-1.42-2.85-1.22-5.36-1.32-8.54-0.04-1.3-0.08-2.6-0.12-3.94l-0.12-4.14c-0.05-1.39-0.09-2.78-0.13-4.17-0.11-3.4-0.21-6.81-0.31-10.2l-5-2-1-10c-1.21-0.34-1.21-0.34-2.44-0.69-0.84-0.43-1.69-0.86-2.56-1.31-0.33-1.67-0.67-3.33-1-5-2.48-1.37-2.48-1.37-5-2l-1-10c-1.98-0.66-3.96-1.32-6-2l-1-17-5-2-1-11h-5c-1-1-1-1-1.06-3.56 0.02-0.81 0.04-1.61 0.06-2.44h-5l-1-7h-5c-0.23-0.78-0.45-1.57-0.69-2.38-1.26-3.24-1.26-3.24-6.31-4.62l-1-11h-5l-1-6h-4v-2h-2v-11h-5c-1.74-1.74-1.37-4.19-1.56-6.56-0.09-1.01-0.17-2.03-0.26-3.07-0.06-0.78-0.12-1.56-0.18-2.37h-3v-2h-2l-1-10c-1.98-0.66-3.96-1.32-6-2v-5c-0.8-0.14-1.61-0.29-2.44-0.44-2.56-0.56-2.56-0.56-3.56-1.56-0.04-1.67-0.04-3.33 0-5h-5c-0.23-0.78-0.45-1.57-0.69-2.38-1.65-3.3-2.98-3.34-6.31-4.62-0.33-1.33-0.67-2.67-1-4-0.8-0.21-1.61-0.41-2.44-0.62-0.84-0.46-1.69-0.91-2.56-1.38-0.68-2.54-1.02-5.06-1.4-7.66-0.4-2.63-0.4-2.63-3.22-4.15-0.79-0.39-1.57-0.79-2.38-1.19-0.31-2.69-0.31-2.69 0-5-1.21 0.03-1.21 0.03-2.44 0.06-2.56-0.06-2.56-0.06-3.56-1.06-0.24-3.37-0.4-6.73-0.52-10.1-0.18-3.77-0.34-5.69-2.48-8.9l-1 2c-2.76-3.96-3.53-7.22-4-12l-5-2v-5h-5l-1-6h-5c-0.23-0.95-0.45-1.9-0.69-2.88-0.97-3.32-0.97-3.32-3.87-4.24-1.21-0.44-1.21-0.44-2.44-0.88-0.33-1.33-0.67-2.67-1-4-0.83-0.33-1.65-0.66-2.5-1-0.83-0.33-1.65-0.66-2.5-1-0.33-1.33-0.67-2.67-1-4-0.8-0.31-1.61-0.62-2.44-0.94-0.84-0.35-1.69-0.7-2.56-1.06-0.67-1.67-1.33-3.33-2-5-1.66-0.69-3.32-1.36-5-2-0.33-1.33-0.67-2.67-1-4-0.83-0.33-1.65-0.66-2.5-1-0.83-0.33-1.65-0.66-2.5-1-0.33-1.33-0.67-2.67-1-4-0.83-0.33-1.65-0.66-2.5-1-0.83-0.33-1.65-0.66-2.5-1-0.33-1.33-0.67-2.67-1-4-0.8-0.31-1.61-0.62-2.44-0.94-2.56-1.06-2.56-1.06-3.87-3.68-0.23-0.79-0.46-1.57-0.69-2.38h-3v-2h-2c-0.06-0.62-0.12-1.24-0.19-1.88-0.27-0.7-0.53-1.4-0.81-2.12-0.83-0.33-1.65-0.66-2.5-1-0.83-0.33-1.65-0.66-2.5-1-0.33-1.33-0.67-2.67-1-4-0.83-0.33-1.65-0.66-2.5-1-0.83-0.33-1.65-0.66-2.5-1-0.81-2.12-0.81-2.12-1-4l-5-1c-0.5-3.47-0.5-3.47-1-7h-5c-0.23-0.78-0.45-1.57-0.69-2.38-1.26-3.24-1.26-3.24-6.31-4.62l-1-11-5-1-1-4-5-1-1-7c-0.8 0.02-1.61 0.04-2.44 0.06-2.56-0.06-2.56-0.06-3.56-1.06-0.07-2.7-0.09-5.37-0.06-8.06 0-0.76 0.01-1.52 0.01-2.3 0.01-1.88 0.03-3.76 0.05-5.64l-2-1-1 1h-2c-0.17-0.92-0.34-1.83-0.52-2.77-0.24-1.19-0.48-2.38-0.73-3.61-0.23-1.18-0.46-2.36-0.7-3.58-0.73-3.14-0.73-3.14-3.11-4.32-0.64-0.24-1.28-0.48-1.94-0.72-0.75-2.13-0.75-2.13-1-4l-4-1v-2h-2l-1-10c-2.48-0.99-2.48-0.99-5-2v-29z" fill="#FCFDFE"/>
<path transform="translate(112)" d="m0 0h662v36c-2.47 0.99-2.47 0.99-5 2-0.89 2.55-0.89 2.55-1 5-1.45 0.37-1.45 0.37-2.94 0.75-1.01 0.41-2.02 0.83-3.06 1.25-0.37 1.32-0.71 2.66-1 4-1.67 0.67-3.33 1.33-5 2-0.16 0.66-0.33 1.32-0.5 2-0.16 0.66-0.33 1.32-0.5 2-1.67 0.67-3.33 1.33-5 2-0.16 0.66-0.33 1.32-0.5 2-0.16 0.66-0.33 1.32-0.5 2-0.8 0.31-1.61 0.62-2.44 0.94-0.84 0.35-1.69 0.7-2.56 1.06-0.33 0.83-0.66 1.65-1 2.5-0.33 0.83-0.66 1.65-1 2.5-1.66 0.69-3.32 1.36-5 2-0.89 2.04-0.89 2.04-1 4l-5 1c-0.06 0.78-0.12 1.57-0.19 2.38-0.27 0.86-0.53 1.73-0.81 2.62-1.67 0.67-3.33 1.33-5 2-0.89 2.55-0.89 2.55-1 5h-5l-1 6c-1.45 0.37-1.45 0.37-2.94 0.75-1.01 0.41-2.02 0.83-3.06 1.25-0.37 1.32-0.71 2.66-1 4-1.67 0.67-3.33 1.33-5 2-0.16 0.66-0.33 1.32-0.5 2-0.16 0.66-0.33 1.32-0.5 2-0.83 0.31-1.65 0.62-2.5 0.94-0.83 0.35-1.65 0.7-2.5 1.06-0.89 2.55-0.89 2.55-1 5-2.47-0.5-2.47-0.5-5-1-0.23 1.11-0.45 2.23-0.69 3.38-0.65 1.79-0.65 1.79-1.31 3.62-2.56 1.19-2.56 1.19-5 2-0.16 0.66-0.33 1.32-0.5 2-0.16 0.66-0.33 1.32-0.5 2-1.67 0.67-3.33 1.33-5 2-0.16 0.66-0.33 1.32-0.5 2-0.16 0.66-0.33 1.32-0.5 2-1.67 0.67-3.33 1.33-5 2-0.16 0.66-0.33 1.32-0.5 2-0.16 0.66-0.33 1.32-0.5 2-0.83 0.31-1.65 0.62-2.5 0.94-0.83 0.35-1.65 0.7-2.5 1.06-0.89 2.55-0.89 2.55-1 5-1.45 0.37-1.45 0.37-2.94 0.75-1.51 0.62-1.51 0.62-3.06 1.25-0.37 1.32-0.71 2.66-1 4-1.67 0.67-3.33 1.33-5 2-0.16 0.66-0.33 1.32-0.5 2-0.16 0.66-0.33 1.32-0.5 2-0.83 0.31-1.65 0.62-2.5 0.94-0.83 0.35-1.65 0.7-2.5 1.06-0.89 2.55-0.89 2.55-1 5-0.78 0.06-1.57 0.12-2.38 0.19-0.86 0.27-1.73 0.53-2.62 0.81-0.68 1.66-1.35 3.33-2 5-1.66 0.69-3.32 1.36-5 2-0.89 2.04-0.89 2.04-1 4l-5 1c-0.06 0.78-0.12 1.57-0.19 2.38-0.27 0.86-0.53 1.73-0.81 2.62-1.67 0.67-3.33 1.33-5 2-0.89 2.55-0.89 2.55-1 5h-6c-0.09 1.42-0.09 1.42-0.19 2.88-0.27 1.03-0.53 2.06-0.81 3.12-2.5 1.13-2.5 1.13-5 2-0.16 0.66-0.33 1.32-0.5 2-0.16 0.66-0.33 1.32-0.5 2-1.67 0.67-3.33 1.33-5 2-0.16 0.66-0.33 1.32-0.5 2-0.16 0.66-0.33 1.32-0.5 2-0.83 0.31-1.65 0.62-2.5 0.94-0.83 0.35-1.65 0.7-2.5 1.06-0.89 2.55-0.89 2.55-1 5l-4-1c-0.21 1.11-0.41 2.23-0.62 3.38-0.46 1.19-0.91 2.39-1.38 3.62-3.06 1.19-3.06 1.19-6 2-0.37 1.32-0.71 2.66-1 4-1.67 0.67-3.33 1.33-5 2-0.16 0.66-0.33 1.32-0.5 2-0.16 0.66-0.33 1.32-0.5 2l-5 2-1 17-5 2c-0.06 0.9-0.12 1.81-0.18 2.74-0.09 1.18-0.17 2.36-0.26 3.57-0.08 1.17-0.16 2.35-0.24 3.55-0.32 3.14-0.32 3.14-1.32 6.14l-5 1c-0.06 0.95-0.12 1.9-0.19 2.88-0.27 1.03-0.53 2.06-0.81 3.12l-5 2-1 11h-5l-1 12-5 2c-0.06 0.9-0.12 1.81-0.18 2.74-0.09 1.18-0.17 2.36-0.26 3.57-0.08 1.17-0.16 2.35-0.24 3.55-0.32 3.14-0.32 3.14-1.32 6.14l-5 1c-0.06 0.95-0.12 1.9-0.19 2.88-0.27 1.03-0.53 2.06-0.81 3.12-2.56 1.38-2.56 1.38-5 2l-1 10-5 2-1 11-5 2-1 11-5 2c-0.85 2.34-0.85 2.34-1 5-0.4 2.73-0.4 2.73-1 5-2.56 1.31-2.56 1.31-5 2-0.17 0.82-0.33 1.65-0.5 2.5-0.17 0.82-0.33 1.65-0.5 2.5l-5 2-1 16-5 2-2 17-5 2c-0.17 0.66-0.33 1.32-0.5 2-0.17 0.66-0.33 1.32-0.5 2-1.24 0.46-1.24 0.46-2.5 0.94-0.82 0.35-1.65 0.7-2.5 1.06-0.17 0.82-0.33 1.65-0.5 2.5-0.17 0.82-0.33 1.65-0.5 2.5l-5 2-1 29-5 2-1 28c-1.98 0.66-3.96 1.32-6 2l-1 5-5 1c-0.06 0.78-0.12 1.57-0.19 2.38-0.27 0.86-0.53 1.73-0.81 2.62l-5 2-1 80-5 2-1 29c-1.98 0.66-3.96 1.32-6 2-0.37 1.32-0.71 2.66-1 4-1.65 0.7-3.32 1.37-5 2l-1 3-5 2-1 149-5 2c-0.89 2.04-0.89 2.04-1 4 1.21-0.03 1.21-0.03 2.44-0.06 2.56 0.06 2.56 0.06 3.56 1.06 0.04 2 0.04 4 0 6l-5 2v47l5 2 1 23 5 2c0.33 1.33 0.67 2.67 1 4 2.49 1.3 2.49 1.3 5 2v5c0.78 0.14 1.57 0.29 2.38 0.44 2.62 0.56 2.62 0.56 4.62 1.56v73h5c2.03 2.03 1.26 6.18 1.32 8.97 0.03 1.2 0.03 1.2 0.06 2.42 0.06 2.56 0.12 5.11 0.18 7.67 0.05 1.73 0.09 3.46 0.13 5.19 0.11 4.25 0.21 8.5 0.31 12.8 0.81 0.29 1.63 0.58 2.47 0.88 0.83 0.37 1.67 0.74 2.53 1.12 0.33 1.33 0.67 2.67 1 4 2.49 1.3 2.49 1.3 5 2v5h5c1.77 3.83 2.29 6.97 2.41 11.2 0.04 1.15 0.08 2.31 0.12 3.5 0.05 1.8 0.05 1.8 0.09 3.63 0.04 1.22 0.08 2.44 0.12 3.69 0.1 3 0.18 6 0.26 9l5 2 1 29 5 2c0.33 1.33 0.67 2.67 1 4 2.49 1.3 2.49 1.3 5 2v5c1.45 0.4 1.45 0.4 2.94 0.81 1.51 0.59 1.51 0.59 3.06 1.19 1.11 3.32 1.32 6.2 1.56 9.69 0.13 1.77 0.13 1.77 0.26 3.57 0.06 0.91 0.12 1.81 0.18 2.74l5 2 1 16 5 2c0.33 1.67 0.67 3.33 1 5 1.22 0.4 1.22 0.4 2.47 0.81 1.25 0.59 1.25 0.59 2.53 1.19 0.84 2.85 1 5.52 1.25 8.47 0.25 0.83 0.5 1.67 0.75 2.53 2.47 1.41 2.47 1.41 5 2l1 10 5 2 1 11 5 2 1 10c1.98 0.66 3.96 1.32 6 2v5c1.98 0.33 3.96 0.66 6 1 0.09 1.18 0.09 1.18 0.19 2.38 0.27 0.86 0.53 1.73 0.81 2.62 1.65 0.72 3.31 1.38 5 2 0.7 1.32 1.37 2.65 2 4 0.66 0.31 1.32 0.62 2 0.94 2 1.06 2 1.06 3 3.62 0.33 0.81 0.66 1.61 1 2.44l4 1 1 11c1.98 0.33 3.96 0.66 6 1v18h5c1.66 1.66 1.36 3.78 1.56 6.06 0.09 0.92 0.17 1.84 0.26 2.79 0.06 0.71 0.12 1.42 0.18 2.15 0.63 0.11 1.26 0.21 1.91 0.32 0.69 0.22 1.38 0.45 2.09 0.68l3 6c1.65 1.03 3.31 2.04 5 3v3c0.95 0.23 1.9 0.45 2.88 0.69 3.12 1.31 3.12 1.31 4.24 3.87 0.29 0.81 0.58 1.61 0.88 2.44 2.04 0.89 2.04 0.89 4 1 0.09 1.18 0.09 1.18 0.19 2.38 0.27 0.86 0.53 1.73 0.81 2.62 1.65 0.7 3.32 1.37 5 2 0.14 0.66 0.29 1.32 0.44 2 0.18 0.66 0.37 1.32 0.56 2 3 1.3 3 1.3 6 2v5c0.78 0.06 1.57 0.12 2.38 0.19 1.29 0.4 1.29 0.4 2.62 0.81 0.68 1.66 1.35 3.33 2 5 1.66 0.69 3.32 1.36 5 2 0.14 0.66 0.29 1.32 0.44 2 0.18 0.66 0.37 1.32 0.56 2 3 1.3 3 1.3 6 2v4c0.8 0.21 1.61 0.41 2.44 0.62 0.84 0.46 1.69 0.91 2.56 1.38 0.81 3.13 0.81 3.13 1 6 0.78-0.06 1.57-0.12 2.38-0.19 0.86 0.06 1.73 0.13 2.62 0.19 2 3 2 3 2 6l5 1c0.06 0.62 0.12 1.24 0.19 1.88 0.27 0.7 0.53 1.4 0.81 2.12 0.83 0.33 1.65 0.66 2.5 1 0.83 0.33 1.65 0.66 2.5 1 0.33 1.33 0.67 2.67 1 4 2.49 1.3 2.49 1.3 5 2v4c0.95 0.23 1.9 0.45 2.88 0.69 3.12 1.31 3.12 1.31 4.18 3.81 0.31 0.83 0.62 1.65 0.94 2.5 1.66 0.69 3.32 1.36 5 2 0.33 1.33 0.67 2.67 1 4 0.83 0.33 1.65 0.66 2.5 1 0.83 0.33 1.65 0.66 2.5 1 0.33 1.33 0.67 2.67 1 4 2.49 1.3 2.49 1.3 5 2v4c1.98 0.66 3.96 1.32 6 2v2h2v3c0.78 0.23 1.57 0.45 2.38 0.69 3.3 1.65 3.34 2.98 4.62 6.31 2.04 0.89 2.04 0.89 4 1 0.06 0.62 0.12 1.24 0.19 1.88 0.27 0.7 0.53 1.4 0.81 2.12 1.21 0.46 1.21 0.46 2.44 0.94 1.27 0.52 1.27 0.52 2.56 1.06 0.67 1.67 1.33 3.33 2 5 1.66 0.69 3.32 1.36 5 2 0.33 1.33 0.67 2.67 1 4 0.83 0.33 1.65 0.66 2.5 1 0.83 0.33 1.65 0.66 2.5 1 0.33 1.33 0.67 2.67 1 4 0.83 0.33 1.65 0.66 2.5 1 0.83 0.33 1.65 0.66 2.5 1 0.33 1.33 0.67 2.67 1 4 0.83 0.33 1.65 0.66 2.5 1 0.83 0.33 1.65 0.66 2.5 1 0.81 2.13 0.81 2.13 1 4l4 1v2h2c0.06 0.62 0.12 1.24 0.19 1.88 0.27 0.7 0.53 1.4 0.81 2.12 0.83 0.33 1.65 0.66 2.5 1 0.83 0.33 1.65 0.66 2.5 1 0.33 1.33 0.67 2.67 1 4 0.83 0.33 1.65 0.66 2.5 1 0.83 0.33 1.65 0.66 2.5 1 0.66 2.06 0.66 2.06 1 4 0.61 0.03 1.23 0.05 1.86 0.08 0.81 0.05 1.62 0.11 2.45 0.17 1.2 0.07 1.2 0.07 2.43 0.14 2.26 0.61 2.26 0.61 4.04 2.2 1.68 3.32 1.51 5.96 1.41 9.66-0.03 1.26-0.06 2.53-0.08 3.83-0.06 1.44-0.06 1.44-0.11 2.92 0.8-0.02 1.61-0.04 2.44-0.06 2.56 0.06 2.56 0.06 3.56 1.06 0.07 2.19 0.08 4.38 0.06 6.56-0.01 1.2-0.02 2.4-0.02 3.63-0.02 1.39-0.02 1.39-0.04 2.81-1.21 0.4-1.21 0.4-2.44 0.81-1.27 0.59-1.27 0.59-2.56 1.19l-1 3c0.8-0.02 1.61-0.04 2.44-0.06 2.56 0.06 2.56 0.06 3.56 1.06 0.09 1.93 0.12 3.87 0.11 5.8v3.77c0 1.36-0.01 2.73-0.01 4.09 0 1.39-0.01 2.78-0.01 4.17 0 3.66-0.01 7.32-0.02 11-0.01 3.73-0.02 7.47-0.02 11.2-0.01 7.33-0.03 14.7-0.05 22l-5 2v62l4-1c3.07 3.07 1 8.65 1 13h-657v-7c-0.72-0.06-1.44-0.12-2.19-0.19-3.69-1.07-5.34-2.92-7.81-5.81v-2h-2v-5h-5l-1-5c-0.78-0.06-1.57-0.12-2.38-0.19-0.86-0.27-1.73-0.53-2.62-0.81-0.68-1.66-1.35-3.33-2-5-0.85-0.33-1.69-0.66-2.56-1-0.81-0.33-1.61-0.66-2.44-1-0.81-2.62-0.81-2.62-1-5h-4c-1.03-1.65-2.03-3.32-3-5h-3v-2h-2l-1-5c-1.98-0.66-3.96-1.32-6-2v-5h-5c-0.49-2.97-0.49-2.97-1-6h-5c-0.4-0.96-0.4-0.96-0.81-1.94-1.08-2.39-1.08-2.39-4.19-3.06v-2h-2c-0.09-1.18-0.09-1.18-0.19-2.38-0.27-0.86-0.53-1.73-0.81-2.62-1.65-0.7-3.32-1.37-5-2-0.81-2.12-0.81-2.12-1-4l-5-1c-0.5-2.97-0.5-2.97-1-6-0.8-0.14-1.61-0.29-2.44-0.44-2.56-0.56-2.56-0.56-3.56-1.56-0.04-1.67-0.04-3.33 0-5h-5c-0.34-1.18-0.34-1.18-0.69-2.38-1.65-3.3-2.98-3.34-6.31-4.62-0.81-2.12-0.81-2.12-1-4l-4-1-2-7c-0.8 0.02-1.61 0.04-2.44 0.06-2.56-0.06-2.56-0.06-3.56-1.06-0.04-1.67-0.04-3.33 0-5h-5v-1363h5l1-5c2.47-0.5 2.47-0.5 5-1 0.14-0.8 0.29-1.61 0.44-2.44 0.56-2.56 0.56-2.56 1.56-3.56 1.67-0.04 3.33-0.04 5 0l-1-5c3.47-0.5 3.47-0.5 7-1-0.02-0.7-0.05-1.4-0.07-2.12-0.02-0.91-0.04-1.82-0.05-2.76-0.03-0.9-0.05-1.8-0.08-2.74 0.2-2.38 0.2-2.38 2.2-4.38 2.63-0.12 2.63-0.12 5 0l1-5c1.98-0.5 1.98-0.5 4-1 0.1-0.78 0.21-1.57 0.31-2.38 0.69-2.62 0.69-2.62 3.69-4.62h3l1-5c2.47-0.5 2.47-0.5 5-1l1-6c0.76-0.06 1.53-0.12 2.31-0.19 3.54-1.07 3.87-2.72 5.69-5.81h4c-0.04-0.78-0.08-1.57-0.12-2.38 0.12-2.62 0.12-2.62 2.12-4.62 2.38-0.2 2.38-0.2 5.12-0.12 0.92 0.01 1.83 0.03 2.76 0.05 0.7 0.02 1.4 0.05 2.12 0.07l1-8h3v2h2c0.07-1.05 0.07-1.05 0.15-2.12 0.07-0.91 0.15-1.82 0.23-2.76 0.06-0.9 0.13-1.8 0.21-2.74 0.41-2.38 0.41-2.38 2.41-4.38 2.16-0.41 2.16-0.41 4.62-0.62 0.82-0.08 1.64-0.15 2.48-0.23 0.94-0.08 0.94-0.08 1.9-0.15 0.14-0.8 0.29-1.61 0.44-2.44 0.56-2.56 0.56-2.56 1.56-3.56 1.67-0.04 3.33-0.04 5 0v-5c3-1 3-1 6 0 0.19-1.42 0.19-1.42 0.38-2.88 0.62-3.12 0.62-3.12 2.62-5.12h3l1-11zm-75 77 1 4z" fill="#FCFDFE"/>
<path transform="translate(426,630)" d="m0 0h5v1h-5v-1z" fill="#000100"/>
</svg>
